<svg width="19" height="17" viewBox="0 0 19 17" fill="none" xmlns="http://www.w3.org/2000/svg">
<path d="M18.7207 2.94547L15.8716 0.262159C15.7836 0.17891 15.6789 0.11289 15.5636 0.0678975C15.4484 0.0229054 15.3248 -0.000169507 15.2 9.37392e-07H3.8C3.67522 -0.000169507 3.55164 0.0229054 3.43638 0.0678975C3.32111 0.11289 3.21642 0.17891 3.12835 0.262159L0.279302 2.94547C0.190542 3.02839 0.120147 3.12709 0.0722018 3.23583C0.0242566 3.34457 -0.000284371 3.4612 2.486e-06 3.57895V15.2105C2.486e-06 16.1974 0.852152 17 1.9 17H17.1C18.1478 17 19 16.1974 19 15.2105V3.57895C19.0003 3.4612 18.9757 3.34457 18.9278 3.23583C18.8799 3.12709 18.8095 3.02839 18.7207 2.94547ZM4.1933 1.78947H14.8067L15.7567 2.68421H3.2433L4.1933 1.78947ZM11.4 10.7368V13.4211H7.6V10.7368H4.75L9.5 6.26316L14.25 10.7368H11.4Z" fill="black"/>
</svg>
