<svg width="20" height="20" viewBox="0 0 20 20" fill="none" xmlns="http://www.w3.org/2000/svg">
<circle cx="10" cy="10" r="9.25" stroke="black" stroke-width="1.5"/>
<path d="M8.85938 12.3066H10.6055V14H8.85938V12.3066ZM6.7207 8.08789C6.76758 6.97461 7.15625 6.18555 7.88672 5.7207C8.34766 5.42383 8.91406 5.27539 9.58594 5.27539C10.4688 5.27539 11.2012 5.48633 11.7832 5.9082C12.3691 6.33008 12.6621 6.95508 12.6621 7.7832C12.6621 8.29102 12.5352 8.71875 12.2812 9.06641C12.1328 9.27734 11.8477 9.54688 11.4258 9.875L11.0098 10.1973C10.7832 10.373 10.6328 10.5781 10.5586 10.8125C10.5117 10.9609 10.4863 11.1914 10.4824 11.5039H8.90039C8.92383 10.8438 8.98633 10.3887 9.08789 10.1387C9.18945 9.88477 9.45117 9.59375 9.87305 9.26562L10.3008 8.93164C10.4414 8.82617 10.5547 8.71094 10.6406 8.58594C10.7969 8.37109 10.875 8.13477 10.875 7.87695C10.875 7.58008 10.7871 7.31055 10.6113 7.06836C10.4395 6.82227 10.123 6.69922 9.66211 6.69922C9.20898 6.69922 8.88672 6.84961 8.69531 7.15039C8.50781 7.45117 8.41406 7.76367 8.41406 8.08789H6.7207Z" fill="black"/>
</svg>
