<svg width="24" height="24" viewBox="0 0 24 24" fill="none" xmlns="http://www.w3.org/2000/svg">
<g clip-path="url(#clip0_713_1033)">
<path d="M17.4404 14.62L20.0004 12.06L17.4404 9.5" stroke="black" stroke-width="1.5" stroke-linecap="round" stroke-linejoin="round"/>
<path d="M9.75977 12.0596H19.9298" stroke="black" stroke-width="1.5" stroke-linecap="round" stroke-linejoin="round"/>
<path d="M11.7603 19.9996C10.6965 20.0493 9.63409 19.8764 8.64096 19.492C7.64784 19.1075 6.7459 18.52 5.99288 17.767C5.23986 17.014 4.65233 16.112 4.26789 15.1189C3.88345 14.1258 3.71056 13.0633 3.7603 11.9996C3.71056 10.9358 3.88345 9.87334 4.26789 8.88022C4.65233 7.88709 5.23986 6.98516 5.99288 6.23214C6.7459 5.47911 7.64784 4.89158 8.64096 4.50714C9.63409 4.1227 10.6965 3.94982 11.7603 3.99956" stroke="black" stroke-width="1.5" stroke-linecap="round" stroke-linejoin="round"/>
</g>
<defs>
<clipPath id="clip0_713_1033">
<rect width="24" height="24" fill="white"/>
</clipPath>
</defs>
</svg>
