<svg width="24" height="24" viewBox="0 0 24 24" fill="none" xmlns="http://www.w3.org/2000/svg">
<path d="M18.1852 20.9848L18.1844 20.9843L13.3044 18.2743L13.2881 18.2653L13.2714 18.257C12.8775 18.0632 12.4443 17.9624 12.0053 17.9624C11.5663 17.9624 11.1331 18.0632 10.7392 18.257L10.7225 18.2653L10.7062 18.2743L5.82855 20.983C5.82817 20.9832 5.82778 20.9834 5.8274 20.9837C5.18233 21.3385 4.7603 21.2777 4.54342 21.15C4.32698 21.0225 4.07031 20.6843 4.07031 19.95V5.86092C4.07245 5.03652 4.40088 4.24648 4.98384 3.66352C5.56679 3.08057 6.35683 2.75213 7.18123 2.75H16.8189C17.6443 2.75329 18.4351 3.0821 19.0196 3.66504C19.6039 4.24779 19.9347 5.03744 19.9403 5.86257V19.95C19.9403 20.6913 19.6823 21.0308 19.4672 21.1575C19.2525 21.284 18.8317 21.3448 18.1852 20.9848Z" stroke="black" stroke-width="1.5"/>
</svg>
