<svg width="24" height="24" viewBox="0 0 24 24" fill="none" xmlns="http://www.w3.org/2000/svg">
<path d="M21.67 9.25H2V6.42C2.00027 5.24783 2.46603 4.12374 3.29488 3.29488C4.12373 2.46603 5.24782 2.00027 6.42 2H8.74C9.2906 1.93874 9.84716 2.03837 10.3423 2.28683C10.8375 2.5353 11.25 2.92196 11.53 3.4L12.93 5.26C13.24 5.67 13.28 5.72 13.86 5.72H16.65C17.7484 5.72008 18.8199 6.05916 19.7184 6.69094C20.6168 7.32273 21.2984 8.21642 21.67 9.25Z" fill="#1AAD67"/>
<path d="M21.98 10.75L22 16.65C21.9984 18.0684 21.4342 19.4283 20.4313 20.4313C19.4283 21.4342 18.0684 21.9984 16.65 22H7.35C5.93158 21.9984 4.57171 21.4342 3.56873 20.4313C2.56576 19.4283 2.00159 18.0684 2 16.65L2 10.75H21.98Z" fill="#1AAD67"/>
</svg>
