<svg width="82" height="79" viewBox="0 0 82 79" fill="none" xmlns="http://www.w3.org/2000/svg">
<path d="M3 66.3333V41C3 30.9218 7.00356 21.2563 14.1299 14.1299C21.2563 7.00356 30.9218 3 41 3C51.0782 3 60.7437 7.00356 67.8701 14.1299C74.9964 21.2563 79 30.9218 79 41V66.3333" stroke="#A5A5A5" stroke-width="5" stroke-linecap="round" stroke-linejoin="round"/>
<path d="M79 70.5554C79 72.7951 74.3993 74.9429 72.974 76.5266C71.5487 78.1102 69.6156 78.9999 67.6 78.9999H63.8C61.7844 78.9999 59.8513 78.1102 58.426 76.5266C57.0007 74.9429 56.2 72.7951 56.2 70.5554V57.8888C56.2 55.6492 57.0007 53.5013 58.426 51.9177C59.8513 50.334 61.7844 49.4443 63.8 49.4443H79V70.5554ZM3 70.5554C3 72.7951 7.60071 74.9429 9.02599 76.5266C10.4513 78.1102 12.3844 78.9999 14.4 78.9999H18.2C20.2156 78.9999 22.1487 78.1102 23.574 76.5266C24.9993 74.9429 25.8 72.7951 25.8 70.5554V57.8888C25.8 55.6492 24.9993 53.5013 23.574 51.9177C22.1487 50.334 20.2156 49.4443 18.2 49.4443H3V70.5554Z" fill="#A5A5A5"/>
</svg>
