<svg width="68" height="67" viewBox="0 0 68 67" fill="none" xmlns="http://www.w3.org/2000/svg">
<ellipse cx="34" cy="33.5" rx="34" ry="33.5" fill="#F8CE61"/>
<path d="M48.505 29.875H19V25.63C19.0004 23.8717 19.699 22.1856 20.9423 20.9423C22.1856 19.699 23.8717 19.0004 25.63 19H29.11C29.9359 18.9081 30.7707 19.0576 31.5135 19.4303C32.2562 19.803 32.875 20.3829 33.295 21.1L35.395 23.89C35.86 24.505 35.92 24.58 36.79 24.58H40.975C42.6225 24.5801 44.2299 25.0887 45.5776 26.0364C46.9252 26.9841 47.9476 28.3246 48.505 29.875Z" fill="white"/>
<path d="M48.97 32.125L49 40.975C48.9976 43.1026 48.1514 45.1424 46.6469 46.6469C45.1424 48.1514 43.1026 48.9976 40.975 49H27.025C24.8974 48.9976 22.8576 48.1514 21.3531 46.6469C19.8486 45.1424 19.0024 43.1026 19 40.975V32.125H48.97Z" fill="white"/>
<line x1="37" y1="40.5" x2="30" y2="40.5" stroke="black"/>
<line x1="33.5" y1="37" x2="33.5" y2="44" stroke="black"/>
</svg>
