<svg width="76" height="76" viewBox="0 0 76 76" fill="none" xmlns="http://www.w3.org/2000/svg">
<path d="M50.033 6.99816C49.7483 6.70867 49.3847 6.50927 48.9876 6.42475C48.5904 6.34024 48.1772 6.37434 47.7992 6.52281C47.4213 6.67128 47.0953 6.92758 46.8619 7.25983C46.6285 7.59207 46.4979 7.98561 46.4863 8.3915V19.4432C46.5329 21.7149 47.4733 23.8767 49.1036 25.4596C50.7339 27.0424 52.9225 27.9186 55.1947 27.8982C58.203 27.9298 62.383 27.9298 65.9613 27.9298C66.3583 27.9405 66.7495 27.8326 67.0849 27.62C67.4203 27.4074 67.6848 27.0996 67.8445 26.736C68.0042 26.3724 68.052 25.9694 67.9816 25.5785C67.9113 25.1877 67.7261 24.8266 67.4497 24.5415C62.8897 19.9498 54.7197 11.6848 50.033 6.99816Z" fill="#CCCCCC"/>
<path d="M64.916 32.2685H55.7643C52.1545 32.2634 48.694 30.8272 46.1414 28.2747C43.5889 25.7222 42.1527 22.2616 42.1477 18.6518V9.50014C42.1477 8.66029 41.814 7.85483 41.2202 7.26097C40.6263 6.6671 39.8208 6.33347 38.981 6.33347H25.5543C23.2028 6.19884 20.8493 6.56286 18.6484 7.40164C16.4474 8.24043 14.4486 9.53503 12.7831 11.2005C11.1175 12.8661 9.82294 14.8649 8.98416 17.0658C8.14538 19.2668 7.78136 21.6203 7.91599 23.9718V52.0285C7.78136 54.38 8.14538 56.7335 8.98416 58.9344C9.82294 61.1354 11.1175 63.1342 12.7831 64.7997C14.4486 66.4652 16.4474 67.7599 18.6484 68.5986C20.8493 69.4374 23.2028 69.8014 25.5543 69.6668H50.4443C52.7959 69.8014 55.1493 69.4374 57.3503 68.5986C59.5513 67.7599 61.5501 66.4652 63.2156 64.7997C64.8811 63.1342 66.1757 61.1354 67.0145 58.9344C67.8533 56.7335 68.2173 54.38 68.0827 52.0285V35.4351C68.0827 34.5953 67.749 33.7898 67.1552 33.196C66.5613 32.6021 65.7558 32.2685 64.916 32.2685ZM36.416 56.2085H23.7493C23.1194 56.2085 22.5153 55.9583 22.0699 55.5129C21.6245 55.0675 21.3743 54.4634 21.3743 53.8335C21.3743 53.2036 21.6245 52.5995 22.0699 52.1541C22.5153 51.7087 23.1194 51.4585 23.7493 51.4585H36.416C37.0459 51.4585 37.65 51.7087 38.0954 52.1541C38.5408 52.5995 38.791 53.2036 38.791 53.8335C38.791 54.4634 38.5408 55.0675 38.0954 55.5129C37.65 55.9583 37.0459 56.2085 36.416 56.2085ZM42.7493 43.5418H23.7493C23.1194 43.5418 22.5153 43.2916 22.0699 42.8462C21.6245 42.4008 21.3743 41.7967 21.3743 41.1668C21.3743 40.5369 21.6245 39.9328 22.0699 39.4874C22.5153 39.042 23.1194 38.7918 23.7493 38.7918H42.7493C43.3792 38.7918 43.9833 39.042 44.4287 39.4874C44.8741 39.9328 45.1243 40.5369 45.1243 41.1668C45.1243 41.7967 44.8741 42.4008 44.4287 42.8462C43.9833 43.2916 43.3792 43.5418 42.7493 43.5418Z" fill="#CCCCCC"/>
</svg>
