<svg width="24" height="24" viewBox="0 0 24 24" fill="none" xmlns="http://www.w3.org/2000/svg">
<path d="M15.5786 19.6998C15.1504 19.7254 14.7482 19.9136 14.454 20.2258C14.1599 20.5381 13.9961 20.9508 13.9961 21.3798C13.9961 21.8088 14.1599 22.2216 14.454 22.5338C14.7482 22.8461 15.1504 23.0342 15.5786 23.0598H20.5886C21.1932 23.0637 21.7769 22.8386 22.2223 22.4299C22.6678 22.0212 22.9422 21.459 22.9903 20.8564C23.0384 20.2537 22.8567 19.6552 22.4817 19.1809C22.1067 18.7067 21.5662 18.3919 20.9686 18.2998C20.925 17.8999 20.7957 17.5141 20.5895 17.1686C20.3833 16.8232 20.1051 16.5262 19.7738 16.298C19.4425 16.0697 19.0659 15.9155 18.6697 15.8459C18.2734 15.7763 17.8668 15.7929 17.4776 15.8946C17.0883 15.9963 16.7256 16.1806 16.414 16.4351C16.1024 16.6896 15.8493 17.0082 15.672 17.3693C15.4946 17.7304 15.3971 18.1255 15.3862 18.5277C15.3753 18.9298 15.4512 19.3296 15.6086 19.6998" fill="#00A3FF"/>
<path d="M22 11.07V15.34C22 15.66 21.49 15.8 21.27 15.57C20.7908 15.0707 20.1918 14.7024 19.53 14.5C18.7413 14.2671 17.9041 14.2529 17.1079 14.459C16.3118 14.665 15.5866 15.0836 15.01 15.67C14.2994 16.419 13.8961 17.4077 13.88 18.44C13.8786 18.5276 13.8572 18.6137 13.8173 18.6917C13.7774 18.7697 13.7202 18.8376 13.65 18.89C13.2809 19.188 12.9845 19.5663 12.7835 19.996C12.5825 20.4257 12.4821 20.8956 12.49 21.37V21.38C12.4976 21.5337 12.444 21.6842 12.341 21.7986C12.2379 21.9129 12.0937 21.9817 11.94 21.99H7.34C6.6387 21.9901 5.94425 21.8521 5.29631 21.5838C4.64838 21.3155 4.05965 20.9221 3.56376 20.4262C3.06787 19.9304 2.67453 19.3416 2.40622 18.6937C2.1379 18.0457 1.99987 17.3513 2 16.65V6.42C2.00027 5.24783 2.46603 4.12374 3.29488 3.29488C4.12373 2.46603 5.24782 2.00027 6.42 2H8.74C9.2906 1.93874 9.84716 2.03837 10.3423 2.28683C10.8375 2.5353 11.25 2.92196 11.53 3.4L12.93 5.26C13.24 5.67 13.28 5.72 13.86 5.72H16.65C17.7831 5.72073 18.8867 6.08143 19.8016 6.75004C20.7164 7.41865 21.3952 8.3606 21.74 9.44C21.8894 9.89244 21.9735 10.3638 21.99 10.84C21.9983 10.9164 22.0017 10.9932 22 11.07V11.07Z" fill="#00A3FF"/>
</svg>
