<svg width="76" height="76" viewBox="0 0 76 76" fill="none" xmlns="http://www.w3.org/2000/svg">
<path d="M68.6223 29.2918H6.33398V20.3302C6.33482 16.6183 7.80974 13.0587 10.4344 10.434C13.0591 7.80926 16.6188 6.33434 20.3307 6.3335H27.6773C29.4209 6.1395 31.1833 6.45499 32.7513 7.2418C34.3194 8.02862 35.6257 9.25302 36.5123 10.7668L40.9457 16.6568C41.9273 17.9552 42.054 18.1135 43.8907 18.1135H52.7257C56.2038 18.1138 59.597 19.1875 62.4422 21.1882C65.2873 23.1888 67.4456 26.0188 68.6223 29.2918Z" fill="#F8CE61"/>
<path d="M69.604 34.0415L69.6673 52.7248C69.6623 57.2165 67.8757 61.5228 64.6997 64.6989C61.5236 67.8749 57.2173 69.6615 52.7256 69.6665H23.2756C18.784 69.6615 14.4777 67.8749 11.3016 64.6989C8.12555 61.5228 6.33901 57.2165 6.33398 52.7248L6.33398 34.0415H69.604Z" fill="#F8CE61"/>
</svg>
