<svg width="24" height="24" viewBox="0 0 24 24" fill="none" xmlns="http://www.w3.org/2000/svg">
<path d="M2.5798 19.0098L2.5598 19.0298C2.27902 18.3964 2.10662 17.7203 2.0498 17.0298C2.11432 17.7148 2.29348 18.3841 2.5798 19.0098Z" fill="#B663F7"/>
<path d="M11.3801 8.00012C11.3801 8.47084 11.2405 8.93099 10.979 9.32237C10.7175 9.71376 10.3458 10.0188 9.9109 10.199C9.47602 10.3791 8.99748 10.4262 8.5358 10.3344C8.07413 10.2426 7.65005 10.0159 7.3172 9.68303C6.98436 9.35018 6.75768 8.92611 6.66585 8.46443C6.57402 8.00276 6.62115 7.52422 6.80128 7.08933C6.98142 6.65444 7.28647 6.28274 7.67786 6.02122C8.06925 5.7597 8.5294 5.62012 9.00012 5.62012C9.63133 5.62012 10.2367 5.87087 10.683 6.3172C11.1294 6.76354 11.3801 7.3689 11.3801 8.00012Z" fill="#B663F7"/>
<path d="M16.1897 2H7.80972C4.16972 2 1.99972 4.17 1.99972 7.81V16.19C1.97795 17.1661 2.16905 18.1352 2.55972 19.03C3.41972 20.93 5.25972 22 7.80972 22H16.1897C19.8297 22 21.9997 19.83 21.9997 16.19V7.81C21.9997 4.17 19.8297 2 16.1897 2ZM20.3697 12.5C19.9717 12.1749 19.4736 11.9974 18.9597 11.9974C18.4458 11.9974 17.9477 12.1749 17.5497 12.5L13.3897 16.07C12.9917 16.3951 12.4936 16.5726 11.9797 16.5726C11.4658 16.5726 10.9677 16.3951 10.5697 16.07L10.2297 15.79C9.86276 15.4869 9.40812 15.3096 8.93282 15.2844C8.45751 15.2592 7.98668 15.3874 7.58972 15.65L3.84972 18.16C3.60981 17.5313 3.49105 16.8629 3.49972 16.19V7.81C3.49972 4.99 4.98972 3.5 7.80972 3.5H16.1897C19.0097 3.5 20.4997 4.99 20.4997 7.81V12.61L20.3697 12.5Z" fill="#B663F7"/>
</svg>
