<svg width="24" height="24" viewBox="0 0 24 24" fill="none" xmlns="http://www.w3.org/2000/svg">
<path d="M9.26953 2H14.7295V6.36H9.26953V2Z" fill="#FF833D"/>
<path d="M16.2305 2V6.36H21.8705C21.3605 3.61 19.3305 2.01 16.2305 2Z" fill="#FF833D"/>
<path d="M2 7.85986V16.1899C2 19.8299 4.17 21.9999 7.81 21.9999H16.19C19.83 21.9999 22 19.8299 22 16.1899V7.85986H2ZM14.44 16.1799L12.36 17.3799C11.9766 17.6141 11.5391 17.7451 11.09 17.7599C10.803 17.7628 10.5203 17.6904 10.27 17.5499C9.96409 17.3447 9.71909 17.0609 9.56072 16.7283C9.40235 16.3958 9.33647 16.0267 9.37 15.6599V13.2599C9.33647 12.893 9.40235 12.524 9.56072 12.1914C9.71909 11.8588 9.96409 11.575 10.27 11.3699C10.6009 11.2053 10.9703 11.1342 11.3386 11.1641C11.707 11.1941 12.0601 11.324 12.36 11.5399L14.44 12.7399C14.7758 12.8943 15.0636 13.1366 15.273 13.4411C15.4825 13.7456 15.6058 14.1011 15.63 14.4699C15.6018 14.835 15.4767 15.186 15.2675 15.4867C15.0583 15.7873 14.7726 16.0266 14.44 16.1799Z" fill="#FF833D"/>
<path d="M7.76988 2C4.66988 2.01 2.63988 3.61 2.12988 6.36H7.76988V2Z" fill="#FF833D"/>
</svg>
