<svg width="23" height="20" viewBox="0 0 23 20" fill="none" xmlns="http://www.w3.org/2000/svg">
<path d="M12.4087 1.50049L19.4842 8.57607C20.6337 9.6778 21.2984 11.191 21.3321 12.7829C21.3659 14.3747 20.7659 15.9147 19.6641 17.0642C18.5624 18.2136 17.0492 18.8783 15.4573 18.912C13.8655 18.9458 12.3255 18.3458 11.176 17.2441L2.42638 8.85756C1.65876 8.1231 1.21434 7.11378 1.19089 6.05165C1.16744 4.98951 1.56688 3.96156 2.30135 3.19394C3.03581 2.42632 4.04513 1.9819 5.10726 1.95845C6.1694 1.935 7.19734 2.33445 7.96497 3.06891L16.7151 11.4754C17.0982 11.8426 17.3198 12.347 17.331 12.8777C17.3423 13.4083 17.1423 13.9216 16.775 14.3048C16.4078 14.6879 15.9034 14.9095 15.3728 14.9207C14.8421 14.932 14.3288 14.732 13.9457 14.3647L5.28767 6.05631" stroke="black" stroke-width="1.5" stroke-linecap="round" stroke-linejoin="round"/>
</svg>
