<svg width="16" height="21" viewBox="0 0 16 21" fill="none" xmlns="http://www.w3.org/2000/svg">
<path d="M4.57143 2.9C4.57143 2.39609 4.75204 1.91282 5.07353 1.5565C5.39502 1.20018 5.83106 1 6.28571 1H9.71429C10.1689 1 10.605 1.20018 10.9265 1.5565C11.248 1.91282 11.4286 2.39609 11.4286 2.9M14 4.8V18.1C14 18.6039 13.8194 19.0872 13.4979 19.4435C13.1764 19.7998 12.7404 20 12.2857 20H3.71429C3.25963 20 2.82359 19.7998 2.5021 19.4435C2.18061 19.0872 2 18.6039 2 18.1V4.8H14Z" stroke="black" stroke-linecap="round" stroke-linejoin="round"/>
<path d="M1 4H2.55556H15" stroke="black" stroke-linecap="round" stroke-linejoin="round"/>
</svg>
