<svg width="12" height="17" viewBox="0 0 12 17" fill="none" xmlns="http://www.w3.org/2000/svg">
<path d="M9.09473 16.1174L11.1948 13.9398H9.09473V16.1174Z" fill="#ABABAB"/>
<path d="M8.42717 16.9366V13.6046C8.42717 13.4179 8.57143 13.2693 8.75259 13.2693H12V0H0V16.9366H8.42717ZM1.55326 2.19139H10.4501C10.6313 2.19139 10.7755 2.34001 10.7755 2.52666C10.7755 2.71331 10.6313 2.86194 10.4501 2.86194H1.55326C1.3721 2.86194 1.22784 2.71331 1.22784 2.52666C1.21443 2.34001 1.36874 2.19139 1.55326 2.19139ZM1.55326 4.85285H10.4501C10.6313 4.85285 10.7755 5.00148 10.7755 5.18813C10.7755 5.37477 10.6313 5.5234 10.4501 5.5234H1.55326C1.3721 5.5234 1.22784 5.37477 1.22784 5.18813C1.21443 5.0153 1.36874 4.85285 1.55326 4.85285ZM1.55326 7.52814H10.4501C10.6313 7.52814 10.7755 7.67677 10.7755 7.86341C10.7755 8.05006 10.6313 8.19869 10.4501 8.19869H1.55326C1.3721 8.19869 1.22784 8.05006 1.22784 7.86341C1.22784 7.67677 1.36874 7.52814 1.55326 7.52814ZM1.21443 10.5387C1.21443 10.3521 1.35868 10.2034 1.53984 10.2034H10.4367C10.6178 10.2034 10.7621 10.3521 10.7621 10.5387C10.7621 10.7254 10.6178 10.874 10.4367 10.874H1.55326C1.36874 10.874 1.21443 10.7254 1.21443 10.5387Z" fill="#ABABAB"/>
</svg>
