<svg width="44" height="44" viewBox="0 0 44 44" fill="none" xmlns="http://www.w3.org/2000/svg">
<circle cx="22" cy="22" r="22" fill="#F8CE61"/>
<path d="M28 31V29C28 27.9391 27.5786 26.9217 26.8284 26.1716C26.0783 25.4214 25.0609 25 24 25H16C14.9391 25 13.9217 25.4214 13.1716 26.1716C12.4214 26.9217 12 27.9391 12 29V31" stroke="black" stroke-linecap="round" stroke-linejoin="round"/>
<path d="M20 21C22.2091 21 24 19.2091 24 17C24 14.7909 22.2091 13 20 13C17.7909 13 16 14.7909 16 17C16 19.2091 17.7909 21 20 21Z" stroke="black" stroke-linecap="round" stroke-linejoin="round"/>
<path d="M34 31V29C33.9993 28.1137 33.7044 27.2528 33.1614 26.5523C32.6184 25.8519 31.8581 25.3516 31 25.13" stroke="black" stroke-linecap="round" stroke-linejoin="round"/>
<path d="M27 13.13C27.8604 13.3503 28.623 13.8507 29.1676 14.5523C29.7122 15.2539 30.0078 16.1168 30.0078 17.005C30.0078 17.8932 29.7122 18.7561 29.1676 19.4577C28.623 20.1593 27.8604 20.6597 27 20.88" stroke="black" stroke-linecap="round" stroke-linejoin="round"/>
</svg>
