<svg width="24" height="26" viewBox="0 0 24 26" fill="none" xmlns="http://www.w3.org/2000/svg">
<path d="M17 25V23C17 21.9391 16.5786 20.9217 15.8284 20.1716C15.0783 19.4214 14.0609 19 13 19H5C3.93913 19 2.92172 19.4214 2.17157 20.1716C1.42143 20.9217 1 21.9391 1 23V25" stroke="black" stroke-linecap="round" stroke-linejoin="round"/>
<path d="M9 15C11.2091 15 13 13.2091 13 11C13 8.79086 11.2091 7 9 7C6.79086 7 5 8.79086 5 11C5 13.2091 6.79086 15 9 15Z" stroke="black" stroke-linecap="round" stroke-linejoin="round"/>
<path d="M15.375 11.5781V10.2656H18.7812V6.83594H20.1172V10.2656H23.5234V11.5781H20.1172V15H18.7812V11.5781H15.375Z" fill="black" fill-opacity="0.5"/>
</svg>
