<svg width="22" height="18" viewBox="0 0 22 18" fill="none" xmlns="http://www.w3.org/2000/svg">
<path d="M4.5 17H7" stroke="black" stroke-linecap="round" stroke-linejoin="round"/>
<path d="M16 6H16.01" stroke="black" stroke-linecap="round" stroke-linejoin="round"/>
<path d="M19 1H13C11.8954 1 11 1.89543 11 3V15C11 16.1046 11.8954 17 13 17H19C20.1046 17 21 16.1046 21 15V3C21 1.89543 20.1046 1 19 1Z" stroke="black" stroke-linecap="round" stroke-linejoin="round"/>
<path d="M7 3H3C2.46957 3 1.96086 3.21071 1.58579 3.58579C1.21071 3.96086 1 4.46957 1 5V11C1 11.5304 1.21071 12.0391 1.58579 12.4142C1.96086 12.7893 2.46957 13 3 13H7" stroke="black" stroke-linecap="round" stroke-linejoin="round"/>
<path d="M16 13C16.5523 13 17 12.5523 17 12C17 11.4477 16.5523 11 16 11C15.4477 11 15 11.4477 15 12C15 12.5523 15.4477 13 16 13Z" stroke="black" stroke-linecap="round" stroke-linejoin="round"/>
</svg>
