<svg width="14" height="18" viewBox="0 0 14 18" fill="none" xmlns="http://www.w3.org/2000/svg">
<path d="M9.33325 3.5C9.33325 2.11929 8.21396 1 6.83325 1C5.45254 1 4.33325 2.11929 4.33325 3.5V7.66667C4.33325 9.04738 5.45254 10.1667 6.83325 10.1667C8.21396 10.1667 9.33325 9.04738 9.33325 7.66667V3.5Z" stroke="black" stroke-width="1.25" stroke-linecap="round" stroke-linejoin="round"/>
<path d="M1 7.6665C1 9.2136 1.61458 10.6973 2.70854 11.7913C3.80251 12.8853 5.28624 13.4998 6.83333 13.4998C8.38043 13.4998 9.86416 12.8853 10.9581 11.7913C12.0521 10.6973 12.6667 9.2136 12.6667 7.6665" stroke="black" stroke-width="1.25" stroke-linecap="round" stroke-linejoin="round"/>
<path d="M3.5 16.8333H10.1667" stroke="black" stroke-width="1.25" stroke-linecap="round" stroke-linejoin="round"/>
<path d="M6.83325 13.5V16.8333" stroke="black" stroke-width="1.25" stroke-linecap="round" stroke-linejoin="round"/>
</svg>
