<svg width="19" height="15" viewBox="0 0 19 15" fill="none" xmlns="http://www.w3.org/2000/svg">
<path d="M4.35369 2.03453C3.38857 2.17671 2.58429 2.29519 2.00344 2.46347C1.4408 2.62648 0.766381 2.92455 0.56256 3.65024C0.358734 4.37592 0.791121 4.93957 1.19693 5.33497C1.61586 5.74317 2.25621 6.20831 3.02463 6.76647L4.30185 7.69429L8.7196 5.1437C9.07578 4.93806 9.52499 5.04925 9.7229 5.39204C9.92081 5.73483 9.79249 6.17945 9.43632 6.38509L5.01857 8.93567L5.18347 10.5057C5.28265 11.4503 5.36531 12.2374 5.50934 12.8043C5.64884 13.3534 5.92081 14.0097 6.65119 14.196C7.38156 14.3824 7.97687 13.9473 8.3994 13.5416C8.83556 13.1227 9.34027 12.4854 9.94597 11.7207L17.5339 2.14094C17.6704 1.96893 17.818 1.78261 17.9143 1.6194C18.0012 1.47215 18.2205 1.05885 17.9724 0.629168C17.7244 0.199483 17.2568 0.182766 17.0858 0.18436C16.8963 0.186183 16.6611 0.220892 16.444 0.253035L4.35369 2.03453Z" fill="#212121"/>
</svg>
