<svg width="52" height="47" viewBox="0 0 52 47" fill="none" xmlns="http://www.w3.org/2000/svg">
<rect width="52" height="47" rx="7" fill="#86C172"/>
<path d="M17 30V24C17 21.6131 17.9482 19.3239 19.636 17.636C21.3239 15.9482 23.6131 15 26 15C28.3869 15 30.6761 15.9482 32.364 17.636C34.0518 19.3239 35 21.6131 35 24V30" stroke="white" stroke-linecap="round" stroke-linejoin="round"/>
<path d="M35 31C35 31.5304 33.9104 32.0391 33.5728 32.4142C33.2352 32.7893 32.7774 33 32.3 33H31.4C30.9226 33 30.4648 32.7893 30.1272 32.4142C29.7896 32.0391 29.6 31.5304 29.6 31V28C29.6 27.4696 29.7896 26.9609 30.1272 26.5858C30.4648 26.2107 30.9226 26 31.4 26H35V31ZM17 31C17 31.5304 18.0896 32.0391 18.4272 32.4142C18.7648 32.7893 19.2226 33 19.7 33H20.6C21.0774 33 21.5352 32.7893 21.8728 32.4142C22.2104 32.0391 22.4 31.5304 22.4 31V28C22.4 27.4696 22.2104 26.9609 21.8728 26.5858C21.5352 26.2107 21.0774 26 20.6 26H17V31Z" fill="white"/>
</svg>
