<svg width="52" height="47" viewBox="0 0 52 47" fill="none" xmlns="http://www.w3.org/2000/svg">
<rect width="52" height="47" rx="7" fill="#FF7DB5"/>
<path d="M19 19H20C20.5304 19 21.0391 18.7893 21.4142 18.4142C21.7893 18.0391 22 17.5304 22 17C22 16.7348 22.1054 16.4804 22.2929 16.2929C22.4804 16.1054 22.7348 16 23 16H29C29.2652 16 29.5196 16.1054 29.7071 16.2929C29.8946 16.4804 30 16.7348 30 17C30 17.5304 30.2107 18.0391 30.5858 18.4142C30.9609 18.7893 31.4696 19 32 19H33C33.5304 19 34.0391 19.2107 34.4142 19.5858C34.7893 19.9609 35 20.4696 35 21V30C35 30.5304 34.7893 31.0391 34.4142 31.4142C34.0391 31.7893 33.5304 32 33 32H19C18.4696 32 17.9609 31.7893 17.5858 31.4142C17.2107 31.0391 17 30.5304 17 30V21C17 20.4696 17.2107 19.9609 17.5858 19.5858C17.9609 19.2107 18.4696 19 19 19Z" fill="white"/>
<path d="M26 28C27.6569 28 29 26.6569 29 25C29 23.3431 27.6569 22 26 22C24.3431 22 23 23.3431 23 25C23 26.6569 24.3431 28 26 28Z" fill="#FF7DB5"/>
</svg>
