<svg width="52" height="47" viewBox="0 0 52 47" fill="none" xmlns="http://www.w3.org/2000/svg">
<rect width="52" height="47" rx="7" fill="#D24E65"/>
<path fill-rule="evenodd" clip-rule="evenodd" d="M25.8445 33.2619C22.1527 33.2619 19 32.6874 19 30.3866C19 28.0859 22.1327 25.9619 25.8445 25.9619C29.5364 25.9619 32.6891 28.0653 32.6891 30.3661C32.6891 32.6659 29.5564 33.2619 25.8445 33.2619Z" fill="white"/>
<path fill-rule="evenodd" clip-rule="evenodd" d="M25.8374 22.7736C28.2602 22.7736 30.2238 20.81 30.2238 18.3873C30.2238 15.9646 28.2602 14 25.8374 14C23.4148 14 21.4502 15.9646 21.4502 18.3873C21.442 20.8018 23.392 22.7655 25.8065 22.7736C25.8174 22.7736 25.8274 22.7736 25.8374 22.7736Z" fill="white"/>
</svg>
