<svg width="52" height="47" viewBox="0 0 52 47" fill="none" xmlns="http://www.w3.org/2000/svg">
<rect width="52" height="47" rx="7" fill="#A171E6"/>
<path d="M33.3538 15H20.6527C19.7418 15 19 15.788 19 16.7556V30.2478C19 31.2155 19.7418 32 20.6494 32H33.3505C34.2614 32 35 31.212 35 30.2478V16.7556C35.0065 15.788 34.2647 15 33.3538 15ZM33.0642 25.5062L30.5591 22.8451C30.4192 22.6965 30.1883 22.6965 30.0484 22.8451L28.2297 24.777L25.0838 21.435C24.9439 21.2864 24.7129 21.2864 24.573 21.435L20.9422 25.285V17.0632H33.0642V25.5062Z" fill="white"/>
</svg>
