<svg width="52" height="47" viewBox="0 0 52 47" fill="none" xmlns="http://www.w3.org/2000/svg">
<rect width="52" height="47" rx="7" fill="#6FA5FB"/>
<path d="M35 22C35 29 26 35 26 35C26 35 17 29 17 22C17 19.6131 17.9482 17.3239 19.636 15.636C21.3239 13.9482 23.6131 13 26 13C28.3869 13 30.6761 13.9482 32.364 15.636C34.0518 17.3239 35 19.6131 35 22Z" fill="white"/>
<path d="M26 24C27.6569 24 29 22.6569 29 21C29 19.3431 27.6569 18 26 18C24.3431 18 23 19.3431 23 21C23 22.6569 24.3431 24 26 24Z" fill="#6FA5FB"/>
</svg>
