<svg width="252" height="262" viewBox="0 0 252 262" fill="none" xmlns="http://www.w3.org/2000/svg">
<path d="M69.686 62.8067H85.2321V79.6933C85.2321 81.5523 85.6497 83.2942 86.4089 84.8547C87.2002 86.4883 88.3799 87.9492 89.8516 89.1583C91.0955 90.1917 92.5672 91.0261 94.1819 91.5999C95.7757 92.1625 97.4533 92.4496 99.143 92.4489C100.886 92.4489 102.565 92.1445 104.107 91.5999C105.719 91.0261 107.191 90.1947 108.437 89.17C109.909 87.9492 111.086 86.4883 111.88 84.8547C112.636 83.2942 113.057 81.5523 113.057 79.6933V62.8067H144.388V79.6933C144.388 81.5523 144.809 83.2942 145.565 84.8547C146.356 86.4883 147.536 87.9492 149.008 89.1583C150.252 90.1917 151.723 91.0261 153.338 91.5999C154.877 92.1445 156.559 92.4489 158.299 92.4489C160.043 92.4489 161.724 92.1445 163.263 91.5999C164.878 91.0261 166.35 90.1947 167.594 89.17C169.065 87.9492 170.245 86.4883 171.036 84.8547C171.793 83.2942 172.213 81.5523 172.213 79.6933V62.8067H188.314C192.069 62.8067 195.491 64.3554 197.976 66.8439C200.458 69.3236 202 72.7548 202 76.5285V185.275C202 189.052 200.458 192.483 197.979 194.969C195.491 197.451 192.069 199 188.314 199H69.686C65.9338 199 62.5145 197.454 60.0296 194.969C57.5418 192.468 56 189.04 56 185.278V76.5285C56 72.7606 57.5418 69.3324 60.0179 66.8468C62.5087 64.3525 65.9309 62.8067 69.686 62.8067ZM102.405 142.128H155.642C159.102 142.128 161.929 144.962 161.929 148.425V152.477C159.54 154.459 157.339 155.522 155.33 155.574C152.83 155.639 150.436 154.026 148.17 150.527C148.047 150.34 147.898 150.167 147.708 150.032C146.873 149.424 145.711 149.605 145.11 150.442C142.826 153.584 141.124 155.329 138.712 155.46C136.271 155.589 133.544 154.096 130.492 150.744C130.451 150.703 130.413 150.662 130.369 150.621C130.189 150.455 129.977 150.326 129.746 150.243C129.515 150.159 129.271 150.122 129.026 150.133C128.781 150.145 128.54 150.205 128.318 150.309C128.097 150.414 127.898 150.562 127.733 150.744C124.877 153.888 122.193 155.522 119.706 155.548C117.279 155.574 115.469 154.04 113.001 150.852C112.887 150.703 112.75 150.574 112.595 150.469C111.757 149.871 110.589 150.079 110 150.922C108.18 153.513 106.058 155.048 103.771 155.46C102.206 155.741 100.524 155.472 98.7284 154.731C95.0141 153.212 96.3632 153.074 96.115 148.434C95.931 144.971 98.9444 142.128 102.405 142.128ZM161.511 159.945V168.699H96.6201V160.385C99.0145 161.339 101.362 161.602 103.602 161.198C106.326 160.704 108.817 159.237 110.978 156.86C113.851 159.91 116.243 161.38 119.431 161.345C122.664 161.313 125.896 159.705 129.12 156.596C132.597 159.945 135.964 161.433 139.226 161.254C142.309 161.093 144.502 159.457 147.122 156.526C149.872 159.904 152.944 161.468 156.296 161.38C158.007 161.333 159.742 160.844 161.511 159.945ZM93.8695 173.014H164.128C164.7 173.014 165.167 173.512 165.167 174.06V178.966C165.167 179.511 164.671 180.011 164.128 180.011H93.8695C93.3293 180.011 92.83 179.543 92.83 178.966V174.06C92.83 173.483 93.2972 173.014 93.8695 173.014ZM123.405 138.436V129.498C123.405 128.295 124.389 127.317 125.578 127.317H132.416C133.617 127.317 134.589 128.307 134.589 129.498V138.436H123.405ZM129.003 110.062C130.18 115.308 133.73 117.928 133.73 120.566C133.73 123.186 132.554 125.812 129.003 125.812C125.467 125.812 124.278 123.186 124.278 120.566C124.278 117.943 127.814 115.32 129.003 110.062ZM151.691 54.4308C151.691 51.4358 154.646 49 158.299 49C161.955 49 164.91 51.4358 164.91 54.4308V79.6933C164.91 82.6912 161.955 85.124 158.299 85.124C154.646 85.124 151.691 82.6912 151.691 79.6933V54.4308ZM92.535 54.4308C92.535 51.4358 95.4901 49 99.143 49C102.796 49 105.754 51.4358 105.754 54.4308V79.6933C105.754 82.6912 102.796 85.124 99.143 85.124C95.4901 85.124 92.535 82.6912 92.535 79.6933V54.4308ZM196.154 108.396V102.535H61.8458V182.348C61.8458 188.279 66.6872 193.139 72.609 193.139H185.391C191.313 193.139 196.154 188.27 196.154 182.345V108.396Z" fill="#FFD600"/>
<g clip-path="url(#clip0_2031_4485)">
<path fill-rule="evenodd" clip-rule="evenodd" d="M15.6906 29.1216H15.2351C15.2351 25.3921 13.8362 22.1357 11.0475 19.3479C8.25893 16.5647 4.9916 15.1685 1.25486 15.1685V14.7139C4.9916 14.7139 8.25893 13.3176 11.0475 10.5298C13.8362 7.73267 15.2351 4.47168 15.2351 0.756104H15.6906C15.6906 4.4856 17.0895 7.74658 19.8782 10.5298C22.6668 13.313 25.9341 14.7092 29.6708 14.7092V15.1638C25.9341 15.1638 22.6668 16.5601 19.8782 19.3433C17.0895 22.1357 15.6906 25.3921 15.6906 29.1216ZM7.38516 46.1965H7.17602C7.17602 44.4895 6.53464 42.9912 5.25187 41.7156C3.97376 40.4399 2.47256 39.7952 0.762207 39.7952V39.5864C2.47256 39.5864 3.97376 38.9463 5.25187 37.666C6.52999 36.3857 7.17602 34.8921 7.17602 33.1897H7.38516C7.38516 34.8967 8.02655 36.395 9.30931 37.6707C10.5874 38.9463 12.084 39.5911 13.799 39.5911V39.7998C12.0886 39.7998 10.5874 40.4399 9.30931 41.7202C8.0219 42.9912 7.38516 44.4895 7.38516 46.1965ZM29.0202 56.2393H28.811C28.811 54.5322 28.1696 53.0339 26.8869 51.7583C25.6087 50.4827 24.1122 49.8379 22.3972 49.8379V49.6292C24.1075 49.6292 25.6087 48.989 26.8869 47.7087C28.165 46.4285 28.811 44.9348 28.811 43.2324H29.0202C29.0202 44.9395 29.6615 46.4377 30.9443 47.7134C32.2224 48.989 33.719 49.6338 35.434 49.6338V49.8425C33.7236 49.8425 32.2224 50.4827 30.9443 51.7629C29.6615 53.0339 29.0202 54.5276 29.0202 56.2393ZM43.5023 40.4446H43.1212C43.1212 37.3181 41.95 34.5813 39.6076 32.2434C37.2652 29.9055 34.5277 28.7366 31.3905 28.7366V28.3562C34.523 28.3562 37.2652 27.1873 39.6076 24.8447C41.95 22.5022 43.1212 19.7654 43.1212 16.6482H43.5023C43.5023 19.7747 44.6736 22.5115 47.016 24.8494C49.3584 27.1873 52.0959 28.3562 55.2331 28.3562V28.7366C52.1006 28.7366 49.3584 29.9055 47.016 32.2434C44.6782 34.5813 43.5023 37.3181 43.5023 40.4446Z" fill="#FFEB32"/>
<path d="M15.6906 29.8823H15.2351C14.8168 29.8823 14.4729 29.5437 14.4729 29.1216C14.4729 27.3589 14.1429 25.7075 13.4876 24.1768C12.8276 22.6414 11.8377 21.208 10.5084 19.886L10.4712 19.8442C9.15595 18.5408 7.73375 17.562 6.20931 16.908C4.67557 16.2539 3.021 15.9246 1.25488 15.9246C0.836584 15.9246 0.492655 15.5859 0.492655 15.1638V14.7092C0.492655 14.2917 0.831936 13.9485 1.25488 13.9485C3.021 13.9485 4.67557 13.6191 6.20931 12.9651C7.75234 12.3064 9.18383 11.3137 10.5084 9.9917C11.833 8.6604 12.8276 7.22705 13.4876 5.68701C14.1429 4.15625 14.4729 2.50952 14.4729 0.756104C14.4729 0.338623 14.8122 -0.00463867 15.2351 -0.00463867H15.6906C16.1089 -0.00463867 16.4528 0.333984 16.4528 0.756104C16.4528 2.5188 16.7828 4.17017 17.4381 5.70093C18.0981 7.23633 19.0881 8.66968 20.4173 9.9917C21.7465 11.3184 23.178 12.311 24.7164 12.9651C26.2501 13.6191 27.9001 13.9485 29.6708 13.9485C30.0891 13.9485 30.4331 14.2871 30.4331 14.7092V15.1638C30.4331 15.5813 30.0938 15.9246 29.6708 15.9246C27.9047 15.9246 26.2501 16.2539 24.7164 16.908C23.178 17.5667 21.7419 18.5547 20.4173 19.8813L20.3801 19.9185C19.0741 21.2358 18.0935 22.6553 17.4381 24.1814C16.7828 25.7122 16.4528 27.3635 16.4528 29.1262C16.4528 29.5437 16.1089 29.8823 15.6906 29.8823ZM14.8865 23.5876C15.1143 24.1165 15.3048 24.6592 15.4629 25.2112C15.6209 24.6592 15.8114 24.1165 16.0392 23.583C16.7689 21.8806 17.8564 20.2988 19.3018 18.8469L19.3437 18.8052C20.8077 17.344 22.4019 16.2493 24.1262 15.5117C24.656 15.2844 25.1998 15.0942 25.7528 14.9365C25.1998 14.7788 24.656 14.5886 24.1262 14.3613C22.4019 13.6238 20.8077 12.5244 19.3437 11.0679C17.8797 9.61133 16.7828 8.01562 16.0438 6.29468C15.8161 5.76123 15.6209 5.21851 15.4629 4.66187C15.3048 5.21387 15.1143 5.75195 14.8865 6.28076C14.1522 7.99707 13.0507 9.59277 11.5867 11.0632C10.1227 12.5291 8.52851 13.6284 6.80422 14.366C6.26973 14.5933 5.72595 14.7881 5.17288 14.9412C5.72595 15.0989 6.26973 15.2891 6.80422 15.5164C8.50992 16.2446 10.0901 17.3301 11.5449 18.7727L11.5867 18.8145C13.0461 20.271 14.1476 21.8667 14.8865 23.5876ZM7.38518 46.9573H7.17603C6.75774 46.9573 6.41381 46.6187 6.41381 46.1965C6.41381 45.4451 6.27438 44.74 5.99552 44.0906C5.71666 43.4365 5.28907 42.8196 4.71276 42.249C4.14109 41.6785 3.52295 41.2517 2.86762 40.9688C2.21695 40.6904 1.5105 40.5513 0.757573 40.5513C0.339281 40.5559 0 40.2173 0 39.7952V39.5864C0 39.1689 0.339281 38.8257 0.762221 38.8257C1.51515 38.8257 2.2216 38.6865 2.87227 38.4082C3.5276 38.1299 4.14109 37.7031 4.7174 37.1279L4.75459 37.0908C5.30766 36.5295 5.7213 35.9265 6.00017 35.2817C6.27903 34.6323 6.41846 33.9319 6.41846 33.1804C6.41846 32.7629 6.75774 32.4197 7.18068 32.4197H7.38982C7.80812 32.4197 8.15205 32.7583 8.15205 33.1804C8.15205 33.9319 8.29148 34.637 8.57034 35.2864C8.8492 35.9404 9.27679 36.5527 9.84845 37.1279C10.4201 37.7031 11.0336 38.1252 11.6889 38.4082C12.3396 38.6865 13.0461 38.8257 13.799 38.8257C14.2173 38.8257 14.5612 39.1643 14.5612 39.5864V39.7952C14.5612 40.2126 14.2219 40.5559 13.799 40.5559C13.0461 40.5559 12.3396 40.6951 11.6889 40.9734C11.0336 41.2517 10.4201 41.6785 9.8438 42.2537L9.80198 42.2908C9.2489 42.8474 8.83526 43.4458 8.56104 44.0859C8.28218 44.7354 8.14275 45.4404 8.14275 46.1965C8.1474 46.614 7.80347 46.9573 7.38518 46.9573ZM5.79102 41.1775C6.42775 41.813 6.92506 42.5042 7.27828 43.251C7.62686 42.5227 8.11022 41.8501 8.73301 41.2239L8.77019 41.1821C9.40692 40.5466 10.0994 40.0503 10.8477 39.6978C10.0994 39.3406 9.40692 38.8442 8.77019 38.2087C8.13346 37.5732 7.63615 36.8774 7.27828 36.1306C6.9297 36.8542 6.44634 37.5315 5.83285 38.1577L5.79102 38.2041C5.15429 38.8396 4.46178 39.3359 3.7135 39.6931C4.45713 40.0457 5.15429 40.542 5.79102 41.1775ZM29.0202 57H28.811C28.3927 57 28.0488 56.6614 28.0488 56.2393C28.0488 55.4878 27.9094 54.7827 27.6305 54.1333C27.3516 53.4792 26.9241 52.8669 26.3477 52.2918L26.3106 52.2546C25.7482 51.7026 25.1486 51.2898 24.5026 51.0161C23.8519 50.7378 23.1455 50.5986 22.3926 50.5986C21.9743 50.5986 21.6303 50.26 21.6303 49.8379V49.6292C21.6303 49.2117 21.9696 48.8684 22.3926 48.8684C23.1455 48.8684 23.8519 48.7292 24.5026 48.4509C25.1579 48.1726 25.7761 47.7459 26.3477 47.1707L26.3849 47.1335C26.938 46.5723 27.3516 45.9692 27.6305 45.3245C27.9094 44.675 28.0488 43.9746 28.0488 43.2231C28.0488 42.8057 28.3881 42.4624 28.811 42.4624H29.0202C29.4385 42.4624 29.7824 42.801 29.7824 43.2231C29.7824 43.9746 29.9218 44.6797 30.2007 45.3291C30.4795 45.9832 30.9071 46.5955 31.4788 47.1707C32.0505 47.7412 32.664 48.168 33.3193 48.4509C33.97 48.7292 34.6764 48.8684 35.4293 48.8684C35.8476 48.8684 36.1916 49.207 36.1916 49.6292V49.8379C36.1916 50.2554 35.8523 50.5986 35.4293 50.5986C34.6764 50.5986 33.97 50.7378 33.3193 51.0161C32.664 51.2944 32.0505 51.7212 31.4741 52.2964L31.4323 52.3335C30.8792 52.8901 30.4656 53.4885 30.1914 54.1287C29.9125 54.7781 29.7731 55.4785 29.7731 56.2346C29.7824 56.6614 29.4431 57 29.0202 57ZM27.426 51.2202C28.0627 51.8557 28.56 52.5469 28.9133 53.2937C29.2618 52.5654 29.7452 51.8928 30.368 51.2666L30.4052 51.2249C31.0419 50.5894 31.7344 50.093 32.4827 49.7405C31.7344 49.3833 31.0419 48.887 30.4052 48.2515C29.7684 47.616 29.2711 46.9202 28.9133 46.1733C28.5647 46.897 28.0813 47.5742 27.4678 48.2004L27.426 48.2468C26.7893 48.8823 26.0968 49.3787 25.3485 49.7312C26.0782 50.0791 26.7567 50.5615 27.3795 51.1785L27.426 51.2202ZM43.5024 41.2007H43.1213C42.703 41.2007 42.359 40.8621 42.359 40.4399C42.359 38.9788 42.0848 37.6104 41.541 36.3394C40.9973 35.0637 40.17 33.8762 39.0638 32.7722C37.9577 31.6682 36.7679 30.8472 35.4944 30.2998C34.2256 29.7571 32.8545 29.4834 31.3858 29.4834C30.9675 29.4834 30.6236 29.1448 30.6236 28.7227V28.3423C30.6236 27.9248 30.9629 27.5815 31.3858 27.5815C32.8545 27.5815 34.2209 27.3079 35.4944 26.7651C36.7725 26.2178 37.9623 25.3921 39.0638 24.2927C40.1653 23.1887 40.9926 21.9966 41.541 20.7209C42.0848 19.4499 42.359 18.0862 42.359 16.6296C42.359 16.2122 42.6983 15.8689 43.1213 15.8689H43.5024C43.9207 15.8689 44.2646 16.2075 44.2646 16.6296C44.2646 18.0908 44.5388 19.4592 45.0826 20.7302C45.631 22.0059 46.4536 23.198 47.5551 24.2974C48.6567 25.3967 49.8465 26.2224 51.1292 26.7651C52.4027 27.3079 53.7691 27.5815 55.2378 27.5815C55.6561 27.5815 56 27.9202 56 28.3423V28.7227C56 29.1401 55.6607 29.4834 55.2378 29.4834C53.7738 29.4834 52.4027 29.7571 51.1292 30.2998C49.8511 30.8472 48.6567 31.6682 47.5551 32.7676C46.4536 33.8716 45.6264 35.0591 45.0826 36.3347C44.5388 37.6057 44.2646 38.9695 44.2646 40.4353C44.2646 40.8621 43.9253 41.2007 43.5024 41.2007ZM42.94 35.7502C43.0794 36.075 43.2049 36.4089 43.3118 36.7429C43.4187 36.4089 43.5442 36.075 43.6836 35.7502C44.3111 34.2891 45.2406 32.9392 46.4815 31.7053C47.7271 30.4668 49.0749 29.5391 50.5343 28.9128C50.8597 28.7737 51.1896 28.6484 51.5289 28.5417C51.1943 28.4351 50.8597 28.3098 50.5343 28.1707C49.0749 27.5491 47.7271 26.6167 46.4862 25.3782L46.4815 25.3735C45.2406 24.135 44.3111 22.7898 43.6836 21.3333C43.5442 21.0085 43.4187 20.6746 43.3118 20.3359C43.2049 20.6699 43.0794 20.9993 42.94 21.324C42.3172 22.7805 41.383 24.1304 40.1421 25.3689C38.9012 26.6121 37.5487 27.5444 36.0893 28.166C35.764 28.3052 35.4293 28.4304 35.0947 28.5371C35.4293 28.6438 35.764 28.769 36.0893 28.9082C37.5533 29.5344 38.9012 30.4622 40.1421 31.7007C41.383 32.9392 42.3172 34.2891 42.94 35.7502Z" fill="#FFC700"/>
</g>
<g clip-path="url(#clip1_2031_4485)">
<path fill-rule="evenodd" clip-rule="evenodd" d="M23.285 207.206H23.0736C23.0736 208.972 22.4241 210.515 21.1293 211.835C19.8346 213.154 18.3177 213.815 16.5827 213.815V214.03C18.3177 214.03 19.8346 214.692 21.1293 216.012C22.4241 217.337 23.0736 218.882 23.0736 220.642H23.285C23.285 218.875 23.9346 217.331 25.2293 216.012C26.524 214.694 28.0409 214.032 29.7759 214.032V213.817C28.0409 213.817 26.524 213.156 25.2293 211.837C23.9346 210.515 23.285 208.972 23.285 207.206ZM19.4289 199.117H19.3318C19.3318 199.926 19.0341 200.636 18.4385 201.24C17.8451 201.844 17.1481 202.15 16.354 202.15V202.249C17.1481 202.249 17.8451 202.552 18.4385 203.158C19.0319 203.765 19.3318 204.472 19.3318 205.279H19.4289C19.4289 204.47 19.7267 203.76 20.3223 203.156C20.9157 202.552 21.6105 202.246 22.4068 202.246V202.147C21.6127 202.147 20.9157 201.844 20.3223 201.238C19.7246 200.636 19.4289 199.926 19.4289 199.117ZM29.4738 194.36H29.3767C29.3767 195.169 29.0789 195.879 28.4833 196.483C27.8899 197.087 27.1951 197.393 26.3988 197.393V197.491C27.1929 197.491 27.8899 197.795 28.4833 198.401C29.0767 199.008 29.3767 199.715 29.3767 200.521H29.4738C29.4738 199.713 29.7716 199.003 30.3671 198.399C30.9605 197.795 31.6554 197.489 32.4516 197.489V197.39C31.6575 197.39 30.9605 197.087 30.3671 196.481C29.7716 195.879 29.4738 195.171 29.4738 194.36ZM36.1976 201.842H36.0207C36.0207 203.323 35.4769 204.619 34.3894 205.727C33.3018 206.834 32.0308 207.388 30.5743 207.388V207.568C32.0287 207.568 33.3018 208.122 34.3894 209.231C35.4769 210.341 36.0207 211.637 36.0207 213.114H36.1976C36.1976 211.633 36.7414 210.337 37.829 209.229C38.9165 208.122 40.1875 207.568 41.6441 207.568V207.388C40.1897 207.388 38.9165 206.834 37.829 205.727C36.7436 204.619 36.1976 203.323 36.1976 201.842Z" fill="#FFEB32"/>
<path d="M23.2849 206.845H23.0735C22.8792 206.845 22.7196 207.006 22.7196 207.206C22.7196 208.041 22.5664 208.823 22.2621 209.548C21.9557 210.275 21.4961 210.954 20.8789 211.58L20.8616 211.6C20.251 212.218 19.5907 212.681 18.8829 212.991C18.1708 213.301 17.4026 213.457 16.5826 213.457C16.3884 213.457 16.2287 213.617 16.2287 213.817V214.032C16.2287 214.23 16.3863 214.393 16.5826 214.393C17.4026 214.393 18.1708 214.549 18.8829 214.859C19.5993 215.171 20.2639 215.641 20.8789 216.267C21.4939 216.898 21.9557 217.577 22.2621 218.306C22.5664 219.031 22.7196 219.811 22.7196 220.642C22.7196 220.84 22.8771 221.002 23.0735 221.002H23.2849C23.4791 221.002 23.6388 220.842 23.6388 220.642C23.6388 219.807 23.792 219.025 24.0963 218.3C24.4027 217.572 24.8623 216.893 25.4795 216.267C26.0966 215.639 26.7612 215.168 27.4755 214.859C28.1876 214.549 28.9536 214.393 29.7757 214.393C29.97 214.393 30.1296 214.232 30.1296 214.032V213.817C30.1296 213.619 29.9721 213.457 29.7757 213.457C28.9558 213.457 28.1876 213.301 27.4755 212.991C26.7612 212.679 26.0944 212.211 25.4795 211.583L25.4622 211.565C24.8558 210.941 24.4005 210.269 24.0963 209.546C23.792 208.821 23.6388 208.038 23.6388 207.203C23.6388 207.006 23.4791 206.845 23.2849 206.845ZM22.9116 209.827C23.0173 209.576 23.1058 209.319 23.1792 209.058C23.2526 209.319 23.341 209.576 23.4468 209.829C23.7855 210.635 24.2905 211.385 24.9616 212.073L24.981 212.092C25.6607 212.784 26.4009 213.303 27.2014 213.652C27.4474 213.76 27.6999 213.85 27.9567 213.925C27.6999 214 27.4474 214.09 27.2014 214.197C26.4009 214.547 25.6607 215.067 24.981 215.757C24.3013 216.447 23.792 217.203 23.4489 218.018C23.3432 218.271 23.2526 218.528 23.1792 218.792C23.1058 218.53 23.0173 218.275 22.9116 218.025C22.5707 217.212 22.0593 216.456 21.3795 215.76C20.6998 215.065 19.9597 214.544 19.1591 214.195C18.9109 214.087 18.6585 213.995 18.4017 213.923C18.6585 213.848 18.9109 213.758 19.1591 213.65C19.951 213.305 20.6847 212.791 21.3601 212.108L21.3795 212.088C22.0571 211.398 22.5685 210.642 22.9116 209.827ZM19.4288 198.757H19.3317C19.1375 198.757 18.9778 198.917 18.9778 199.117C18.9778 199.473 18.9131 199.807 18.7836 200.115C18.6542 200.425 18.4556 200.717 18.1881 200.987C17.9226 201.258 17.6357 201.46 17.3314 201.594C17.0293 201.726 16.7013 201.792 16.3517 201.792C16.1575 201.789 16 201.95 16 202.15V202.249C16 202.446 16.1575 202.609 16.3539 202.609C16.7035 202.609 17.0315 202.675 17.3336 202.807C17.6378 202.938 17.9226 203.141 18.1902 203.413L18.2075 203.431C18.4643 203.697 18.6563 203.982 18.7858 204.288C18.9153 204.595 18.98 204.927 18.98 205.283C18.98 205.481 19.1375 205.643 19.3339 205.643H19.431C19.6252 205.643 19.7849 205.483 19.7849 205.283C19.7849 204.927 19.8496 204.593 19.9791 204.285C20.1086 203.976 20.3071 203.686 20.5725 203.413C20.8379 203.141 21.1227 202.941 21.427 202.807C21.7291 202.675 22.0571 202.609 22.4067 202.609C22.6009 202.609 22.7606 202.448 22.7606 202.249V202.15C22.7606 201.952 22.603 201.789 22.4067 201.789C22.0571 201.789 21.7291 201.723 21.427 201.592C21.1227 201.46 20.8379 201.258 20.5703 200.985L20.5509 200.968C20.2941 200.704 20.1021 200.42 19.9748 200.117C19.8453 199.81 19.7806 199.476 19.7806 199.117C19.7827 198.92 19.623 198.757 19.4288 198.757ZM18.6887 201.495C18.9843 201.194 19.2152 200.866 19.3792 200.513C19.541 200.858 19.7655 201.176 20.0546 201.473L20.0719 201.493C20.3675 201.794 20.689 202.029 21.0364 202.196C20.689 202.365 20.3675 202.6 20.0719 202.901C19.7762 203.202 19.5454 203.532 19.3792 203.885C19.2174 203.543 18.9929 203.222 18.7081 202.925L18.6887 202.903C18.3931 202.602 18.0715 202.367 17.7241 202.198C18.0694 202.031 18.3931 201.796 18.6887 201.495ZM29.4736 194H29.3765C29.1823 194 29.0227 194.16 29.0227 194.36C29.0227 194.716 28.9579 195.05 28.8285 195.358C28.699 195.668 28.5005 195.958 28.2329 196.23L28.2156 196.248C27.9545 196.509 27.6762 196.705 27.3762 196.834C27.0741 196.966 26.7461 197.032 26.3965 197.032C26.2023 197.032 26.0427 197.193 26.0427 197.393V197.491C26.0427 197.689 26.2002 197.852 26.3965 197.852C26.7461 197.852 27.0741 197.918 27.3762 198.05C27.6805 198.181 27.9675 198.384 28.2329 198.656L28.2501 198.674C28.5069 198.939 28.699 199.225 28.8285 199.531C28.9579 199.838 29.0227 200.17 29.0227 200.526C29.0227 200.724 29.1802 200.886 29.3765 200.886H29.4736C29.6679 200.886 29.8275 200.726 29.8275 200.526C29.8275 200.17 29.8923 199.836 30.0217 199.528C30.1512 199.219 30.3497 198.928 30.6152 198.656C30.8806 198.386 31.1654 198.184 31.4697 198.05C31.7718 197.918 32.0998 197.852 32.4493 197.852C32.6435 197.852 32.8032 197.691 32.8032 197.491V197.393C32.8032 197.195 32.6457 197.032 32.4493 197.032C32.0998 197.032 31.7718 196.966 31.4697 196.834C31.1654 196.703 30.8806 196.5 30.613 196.228L30.5936 196.21C30.3368 195.947 30.1447 195.663 30.0174 195.36C29.888 195.052 29.8232 194.721 29.8232 194.363C29.8275 194.16 29.67 194 29.4736 194ZM28.7335 196.738C29.0291 196.437 29.26 196.109 29.424 195.756C29.5859 196.101 29.8103 196.419 30.0994 196.716L30.1167 196.736C30.4123 197.037 30.7338 197.272 31.0813 197.439C30.7338 197.608 30.4123 197.843 30.1167 198.144C29.8211 198.445 29.5902 198.775 29.424 199.128C29.2622 198.786 29.0378 198.465 28.7529 198.168L28.7335 198.146C28.4379 197.845 28.1164 197.61 27.7689 197.443C28.1077 197.278 28.4228 197.05 28.7119 196.758L28.7335 196.738ZM36.1975 201.484H36.0206C35.8264 201.484 35.6667 201.644 35.6667 201.844C35.6667 202.536 35.5394 203.185 35.2869 203.787C35.0344 204.391 34.6503 204.953 34.1368 205.476C33.6232 205.999 33.0708 206.388 32.4795 206.647C31.8904 206.905 31.2539 207.034 30.572 207.034C30.3778 207.034 30.2181 207.195 30.2181 207.395V207.575C30.2181 207.772 30.3756 207.935 30.572 207.935C31.2539 207.935 31.8883 208.065 32.4795 208.322C33.073 208.581 33.6254 208.972 34.1368 209.493C34.6482 210.016 35.0323 210.581 35.2869 211.185C35.5394 211.787 35.6667 212.433 35.6667 213.123C35.6667 213.321 35.8242 213.483 36.0206 213.483H36.1975C36.3917 213.483 36.5514 213.323 36.5514 213.123C36.5514 212.431 36.6787 211.782 36.9312 211.18C37.1858 210.576 37.5678 210.011 38.0792 209.491C38.5906 208.97 39.143 208.579 39.7386 208.322C40.3298 208.065 40.9642 207.935 41.6461 207.935C41.8403 207.935 42 207.775 42 207.575V207.395C42 207.197 41.8425 207.034 41.6461 207.034C40.9664 207.034 40.3298 206.905 39.7386 206.647C39.1452 206.388 38.5906 205.999 38.0792 205.479C37.5678 204.956 37.1837 204.393 36.9312 203.789C36.6787 203.187 36.5514 202.541 36.5514 201.846C36.5514 201.644 36.3939 201.484 36.1975 201.484ZM35.9364 204.066C36.0012 203.912 36.0594 203.754 36.1091 203.595C36.1587 203.754 36.2169 203.912 36.2817 204.066C36.573 204.758 37.0046 205.397 37.5807 205.982C38.159 206.568 38.7848 207.008 39.4624 207.304C39.6134 207.37 39.7666 207.43 39.9241 207.48C39.7688 207.531 39.6134 207.59 39.4624 207.656C38.7848 207.95 38.159 208.392 37.5829 208.979L37.5807 208.981C37.0046 209.568 36.573 210.205 36.2817 210.895C36.2169 211.049 36.1587 211.207 36.1091 211.367C36.0594 211.209 36.0012 211.053 35.9364 210.899C35.6473 210.209 35.2135 209.57 34.6374 208.983C34.0613 208.394 33.4333 207.953 32.7557 207.658C32.6047 207.592 32.4493 207.533 32.294 207.482C32.4493 207.432 32.6047 207.373 32.7557 207.307C33.4355 207.01 34.0613 206.571 34.6374 205.984C35.2135 205.397 35.6473 204.758 35.9364 204.066Z" fill="#FFC700"/>
</g>
<g clip-path="url(#clip2_2031_4485)">
<path fill-rule="evenodd" clip-rule="evenodd" d="M171.57 233.9H171.147C171.147 237.499 169.848 240.641 167.258 243.331C164.669 246.017 161.635 247.364 158.165 247.364V247.802C161.635 247.802 164.669 249.15 167.258 251.84C169.848 254.539 171.147 257.685 171.147 261.27H171.57C171.57 257.672 172.869 254.525 175.458 251.84C178.048 249.154 181.082 247.807 184.551 247.807V247.368C181.082 247.368 178.048 246.021 175.458 243.335C172.869 240.641 171.57 237.499 171.57 233.9ZM163.858 217.424H163.663C163.663 219.072 163.068 220.517 161.877 221.748C160.69 222.979 159.296 223.601 157.708 223.601V223.803C159.296 223.803 160.69 224.42 161.877 225.656C163.064 226.891 163.663 228.332 163.663 229.975H163.858C163.858 228.328 164.453 226.882 165.644 225.651C166.831 224.42 168.221 223.798 169.813 223.798V223.597C168.225 223.597 166.831 222.979 165.644 221.744C164.449 220.517 163.858 219.072 163.858 217.424ZM183.947 207.734H183.753C183.753 209.381 183.158 210.827 181.966 212.058C180.78 213.289 179.39 213.911 177.797 213.911V214.112C179.386 214.112 180.78 214.73 181.966 215.965C183.153 217.201 183.753 218.642 183.753 220.285H183.947C183.947 218.637 184.543 217.192 185.734 215.961C186.921 214.73 188.31 214.108 189.903 214.108V213.906C188.315 213.906 186.921 213.289 185.734 212.053C184.543 210.827 183.947 209.386 183.947 207.734ZM197.395 222.975H197.041C197.041 225.991 195.954 228.632 193.778 230.888C191.603 233.144 189.061 234.272 186.148 234.272V234.639C189.057 234.639 191.603 235.767 193.778 238.027C195.954 240.287 197.041 242.928 197.041 245.936H197.395C197.395 242.919 198.483 240.278 200.658 238.023C202.833 235.767 205.375 234.639 208.288 234.639V234.272C205.379 234.272 202.833 233.144 200.658 230.888C198.487 228.632 197.395 225.991 197.395 222.975Z" fill="#FFEB32"/>
<path d="M171.57 233.166H171.147C170.758 233.166 170.439 233.493 170.439 233.9C170.439 235.601 170.133 237.194 169.524 238.672C168.911 240.153 167.992 241.536 166.758 242.812L166.723 242.852C165.502 244.11 164.181 245.054 162.766 245.685C161.342 246.316 159.805 246.634 158.165 246.634C157.777 246.634 157.457 246.961 157.457 247.368V247.807C157.457 248.21 157.773 248.541 158.165 248.541C159.805 248.541 161.342 248.859 162.766 249.49C164.199 250.125 165.528 251.083 166.758 252.359C167.988 253.643 168.911 255.027 169.524 256.513C170.133 257.99 170.439 259.579 170.439 261.27C170.439 261.673 170.754 262.004 171.147 262.004H171.57C171.958 262.004 172.278 261.678 172.278 261.27C172.278 259.57 172.584 257.976 173.193 256.499C173.805 255.018 174.725 253.635 175.959 252.359C177.193 251.079 178.522 250.121 179.951 249.49C181.375 248.859 182.907 248.541 184.551 248.541C184.94 248.541 185.259 248.214 185.259 247.807V247.368C185.259 246.965 184.944 246.634 184.551 246.634C182.912 246.634 181.375 246.316 179.951 245.685C178.522 245.05 177.189 244.096 175.959 242.816L175.924 242.78C174.712 241.509 173.801 240.14 173.193 238.667C172.584 237.19 172.278 235.597 172.278 233.896C172.278 233.493 171.958 233.166 171.57 233.166ZM170.823 239.24C171.035 238.73 171.212 238.206 171.358 237.673C171.505 238.206 171.682 238.73 171.894 239.244C172.571 240.887 173.581 242.413 174.923 243.814L174.962 243.855C176.321 245.265 177.802 246.321 179.403 247.033C179.895 247.252 180.4 247.435 180.913 247.588C180.4 247.74 179.895 247.923 179.403 248.143C177.802 248.854 176.321 249.915 174.962 251.32C173.603 252.726 172.584 254.266 171.898 255.926C171.686 256.441 171.505 256.965 171.358 257.502C171.212 256.969 171.035 256.45 170.823 255.94C170.141 254.284 169.119 252.744 167.759 251.325C166.4 249.911 164.919 248.85 163.318 248.138C162.822 247.919 162.317 247.731 161.803 247.583C162.317 247.431 162.822 247.247 163.318 247.028C164.902 246.325 166.369 245.278 167.72 243.886L167.759 243.846C169.114 242.44 170.137 240.901 170.823 239.24ZM163.858 216.69H163.663C163.275 216.69 162.956 217.017 162.956 217.424C162.956 218.149 162.826 218.83 162.567 219.456C162.308 220.088 161.911 220.683 161.376 221.233C160.845 221.784 160.271 222.196 159.663 222.469C159.059 222.737 158.403 222.872 157.703 222.872C157.315 222.867 157 223.194 157 223.601V223.803C157 224.205 157.315 224.537 157.708 224.537C158.407 224.537 159.063 224.671 159.667 224.939C160.276 225.208 160.845 225.62 161.38 226.175L161.415 226.211C161.929 226.752 162.313 227.334 162.572 227.956C162.831 228.583 162.96 229.259 162.96 229.984C162.96 230.387 163.275 230.718 163.668 230.718H163.862C164.25 230.718 164.57 230.391 164.57 229.984C164.57 229.259 164.699 228.578 164.958 227.952C165.217 227.321 165.614 226.73 166.145 226.175C166.676 225.62 167.245 225.212 167.854 224.939C168.458 224.671 169.114 224.537 169.813 224.537C170.202 224.537 170.521 224.21 170.521 223.803V223.601C170.521 223.198 170.206 222.867 169.813 222.867C169.114 222.867 168.458 222.733 167.854 222.464C167.245 222.196 166.676 221.784 166.141 221.229L166.102 221.193C165.588 220.656 165.204 220.079 164.95 219.461C164.691 218.834 164.561 218.154 164.561 217.424C164.565 217.022 164.246 216.69 163.858 216.69ZM162.377 222.267C162.969 221.654 163.43 220.987 163.758 220.267C164.082 220.969 164.531 221.618 165.109 222.223L165.144 222.263C165.735 222.876 166.378 223.355 167.073 223.695C166.378 224.04 165.735 224.519 165.144 225.132C164.552 225.745 164.091 226.417 163.758 227.137C163.435 226.439 162.986 225.785 162.416 225.181L162.377 225.136C161.786 224.523 161.143 224.044 160.448 223.7C161.139 223.359 161.786 222.881 162.377 222.267ZM183.947 207H183.753C183.365 207 183.045 207.327 183.045 207.734C183.045 208.459 182.916 209.139 182.657 209.766C182.398 210.397 182.001 210.988 181.466 211.543L181.431 211.579C180.909 212.111 180.352 212.51 179.752 212.774C179.148 213.042 178.492 213.177 177.793 213.177C177.405 213.177 177.085 213.503 177.085 213.911V214.112C177.085 214.515 177.4 214.846 177.793 214.846C178.492 214.846 179.148 214.981 179.752 215.249C180.361 215.518 180.935 215.929 181.466 216.484L181.5 216.52C182.014 217.062 182.398 217.644 182.657 218.266C182.916 218.892 183.045 219.568 183.045 220.293C183.045 220.696 183.36 221.028 183.753 221.028H183.947C184.336 221.028 184.655 220.701 184.655 220.293C184.655 219.568 184.785 218.888 185.043 218.261C185.302 217.63 185.699 217.039 186.23 216.484C186.761 215.934 187.331 215.522 187.939 215.249C188.544 214.981 189.2 214.846 189.899 214.846C190.287 214.846 190.606 214.52 190.606 214.112V213.911C190.606 213.508 190.291 213.177 189.899 213.177C189.2 213.177 188.544 213.042 187.939 212.774C187.331 212.505 186.761 212.094 186.226 211.539L186.187 211.503C185.674 210.966 185.289 210.388 185.035 209.771C184.776 209.144 184.646 208.468 184.646 207.739C184.655 207.327 184.34 207 183.947 207ZM182.467 212.577C183.058 211.964 183.52 211.297 183.848 210.576C184.172 211.279 184.621 211.928 185.199 212.532L185.233 212.573C185.825 213.186 186.468 213.665 187.163 214.005C186.468 214.349 185.825 214.828 185.233 215.442C184.642 216.055 184.18 216.726 183.848 217.447C183.524 216.749 183.076 216.095 182.506 215.491L182.467 215.446C181.876 214.833 181.233 214.354 180.538 214.014C181.215 213.678 181.846 213.213 182.424 212.617L182.467 212.577ZM197.395 222.245H197.041C196.653 222.245 196.333 222.572 196.333 222.979C196.333 224.389 196.079 225.709 195.574 226.936C195.069 228.167 194.301 229.312 193.274 230.378C192.246 231.443 191.142 232.235 189.959 232.763C188.781 233.287 187.508 233.551 186.144 233.551C185.756 233.551 185.436 233.878 185.436 234.285V234.652C185.436 235.055 185.751 235.386 186.144 235.386C187.508 235.386 188.777 235.65 189.959 236.174C191.146 236.702 192.251 237.499 193.274 238.56C194.296 239.625 195.065 240.775 195.574 242.006C196.079 243.233 196.333 244.548 196.333 245.954C196.333 246.357 196.648 246.688 197.041 246.688H197.395C197.783 246.688 198.103 246.361 198.103 245.954C198.103 244.544 198.357 243.224 198.862 241.997C199.372 240.766 200.136 239.616 201.158 238.555C202.181 237.494 203.286 236.698 204.477 236.174C205.66 235.65 206.928 235.386 208.292 235.386C208.681 235.386 209 235.059 209 234.652V234.285C209 233.882 208.685 233.551 208.292 233.551C206.933 233.551 205.66 233.287 204.477 232.763C203.29 232.235 202.181 231.443 201.158 230.382C200.136 229.317 199.367 228.171 198.862 226.94C198.357 225.714 198.103 224.398 198.103 222.983C198.103 222.572 197.788 222.245 197.395 222.245ZM196.873 227.504C197.002 227.191 197.119 226.869 197.218 226.546C197.317 226.869 197.434 227.191 197.563 227.504C198.146 228.914 199.009 230.217 200.161 231.407C201.318 232.602 202.57 233.497 203.925 234.102C204.227 234.236 204.533 234.357 204.848 234.46C204.538 234.563 204.227 234.684 203.925 234.818C202.57 235.418 201.318 236.317 200.166 237.512L200.161 237.517C199.009 238.712 198.146 240.01 197.563 241.415C197.434 241.729 197.317 242.051 197.218 242.378C197.119 242.055 197.002 241.738 196.873 241.424C196.295 240.019 195.427 238.716 194.275 237.521C193.123 236.322 191.867 235.422 190.511 234.822C190.209 234.688 189.899 234.567 189.588 234.464C189.899 234.361 190.209 234.24 190.511 234.106C191.871 233.502 193.123 232.607 194.275 231.412C195.427 230.217 196.295 228.914 196.873 227.504Z" fill="#FFC700"/>
</g>
<g clip-path="url(#clip3_2031_4485)">
<path fill-rule="evenodd" clip-rule="evenodd" d="M237.604 132.729H237.441C237.441 131.355 236.941 130.155 235.946 129.128C234.95 128.103 233.783 127.588 232.448 127.588V127.421C233.783 127.421 234.95 126.906 235.946 125.879C236.941 124.849 237.441 123.647 237.441 122.279H237.604C237.604 123.653 238.103 124.854 239.099 125.879C240.095 126.905 241.262 127.419 242.597 127.419V127.587C241.262 127.587 240.095 128.101 239.099 129.126C238.103 130.155 237.604 131.355 237.604 132.729ZM234.638 139.02H234.563C234.563 138.391 234.334 137.839 233.876 137.369C233.419 136.899 232.883 136.661 232.272 136.661V136.584C232.883 136.584 233.419 136.349 233.876 135.877C234.332 135.405 234.563 134.855 234.563 134.228H234.638C234.638 134.857 234.867 135.409 235.325 135.879C235.781 136.349 236.316 136.586 236.928 136.586V136.663C236.317 136.663 235.781 136.899 235.325 137.371C234.865 137.839 234.638 138.391 234.638 139.02ZM242.364 142.72H242.29C242.29 142.091 242.061 141.539 241.602 141.069C241.146 140.599 240.611 140.361 239.999 140.361V140.284C240.61 140.284 241.146 140.049 241.602 139.577C242.059 139.105 242.29 138.555 242.29 137.928H242.364C242.364 138.557 242.593 139.109 243.052 139.579C243.508 140.049 244.042 140.286 244.655 140.286V140.363C244.044 140.363 243.508 140.599 243.052 141.071C242.593 141.539 242.364 142.089 242.364 142.72ZM247.537 136.901H247.4C247.4 135.749 246.982 134.74 246.146 133.879C245.309 133.018 244.331 132.587 243.211 132.587V132.447C244.33 132.447 245.309 132.016 246.146 131.153C246.982 130.29 247.4 129.282 247.4 128.134H247.537C247.537 129.285 247.955 130.294 248.791 131.155C249.628 132.016 250.606 132.447 251.726 132.447V132.587C250.607 132.587 249.628 133.018 248.791 133.879C247.957 134.74 247.537 135.749 247.537 136.901Z" fill="#FFEB32"/>
<path d="M237.604 133.009H237.441C237.292 133.009 237.169 132.884 237.169 132.729C237.169 132.079 237.051 131.471 236.817 130.907C236.581 130.341 236.228 129.813 235.753 129.326L235.74 129.311C235.27 128.831 234.762 128.47 234.218 128.229C233.67 127.988 233.079 127.867 232.448 127.867C232.299 127.867 232.176 127.742 232.176 127.587V127.419C232.176 127.265 232.297 127.139 232.448 127.139C233.079 127.139 233.67 127.017 234.218 126.776C234.769 126.534 235.28 126.168 235.753 125.681C236.226 125.191 236.581 124.662 236.817 124.095C237.051 123.531 237.169 122.924 237.169 122.278C237.169 122.125 237.29 121.998 237.441 121.998H237.604C237.753 121.998 237.876 122.123 237.876 122.278C237.876 122.928 237.994 123.536 238.228 124.1C238.464 124.666 238.817 125.194 239.292 125.681C239.767 126.17 240.278 126.535 240.827 126.776C241.375 127.017 241.964 127.139 242.597 127.139C242.746 127.139 242.869 127.264 242.869 127.419V127.587C242.869 127.74 242.748 127.867 242.597 127.867C241.966 127.867 241.375 127.988 240.827 128.229C240.278 128.472 239.765 128.836 239.292 129.325L239.279 129.338C238.812 129.824 238.462 130.347 238.228 130.909C237.994 131.473 237.876 132.081 237.876 132.731C237.876 132.884 237.753 133.009 237.604 133.009ZM237.317 130.69C237.398 130.885 237.466 131.085 237.522 131.288C237.579 131.085 237.647 130.885 237.728 130.688C237.989 130.061 238.377 129.478 238.894 128.943L238.908 128.928C239.431 128.39 240.001 127.986 240.616 127.715C240.806 127.631 241 127.561 241.197 127.503C241 127.445 240.806 127.375 240.616 127.291C240.001 127.019 239.431 126.614 238.908 126.077C238.386 125.541 237.994 124.953 237.73 124.319C237.649 124.122 237.579 123.922 237.522 123.717C237.466 123.921 237.398 124.119 237.317 124.314C237.054 124.946 236.661 125.534 236.138 126.076C235.615 126.616 235.046 127.021 234.43 127.293C234.239 127.376 234.045 127.448 233.847 127.504C234.045 127.563 234.239 127.633 234.43 127.716C235.039 127.985 235.604 128.385 236.123 128.916L236.138 128.931C236.659 129.468 237.053 130.056 237.317 130.69ZM234.638 139.3H234.563C234.413 139.3 234.291 139.175 234.291 139.02C234.291 138.743 234.241 138.483 234.141 138.244C234.042 138.003 233.889 137.775 233.683 137.565C233.479 137.355 233.258 137.198 233.024 137.094C232.792 136.991 232.539 136.94 232.271 136.94C232.121 136.941 232 136.817 232 136.661V136.584C232 136.43 232.121 136.304 232.272 136.304C232.541 136.304 232.793 136.253 233.026 136.15C233.26 136.048 233.479 135.89 233.685 135.679L233.698 135.665C233.896 135.458 234.043 135.236 234.143 134.998C234.243 134.759 234.292 134.501 234.292 134.224C234.292 134.07 234.413 133.944 234.565 133.944H234.639C234.789 133.944 234.911 134.069 234.911 134.224C234.911 134.501 234.961 134.761 235.061 135C235.16 135.241 235.313 135.467 235.517 135.679C235.721 135.89 235.941 136.046 236.175 136.15C236.407 136.253 236.659 136.304 236.928 136.304C237.078 136.304 237.2 136.429 237.2 136.584V136.661C237.2 136.815 237.079 136.941 236.928 136.941C236.659 136.941 236.407 136.993 236.175 137.095C235.941 137.198 235.721 137.355 235.516 137.567L235.501 137.581C235.303 137.786 235.155 138.006 235.058 138.242C234.958 138.481 234.908 138.741 234.908 139.02C234.91 139.173 234.787 139.3 234.638 139.3ZM234.068 137.17C234.296 137.405 234.473 137.659 234.599 137.934C234.724 137.666 234.897 137.418 235.119 137.188L235.132 137.172C235.36 136.938 235.607 136.755 235.874 136.625C235.607 136.494 235.36 136.311 235.132 136.077C234.905 135.843 234.727 135.586 234.599 135.311C234.475 135.578 234.302 135.827 234.083 136.058L234.068 136.075C233.841 136.309 233.593 136.492 233.326 136.624C233.592 136.753 233.841 136.936 234.068 137.17ZM242.364 143H242.29C242.14 143 242.017 142.875 242.017 142.72C242.017 142.443 241.968 142.183 241.868 141.944C241.768 141.703 241.616 141.477 241.41 141.265L241.397 141.252C241.196 141.048 240.982 140.896 240.751 140.795C240.519 140.693 240.266 140.641 239.997 140.641C239.848 140.641 239.725 140.517 239.725 140.361V140.284C239.725 140.13 239.846 140.004 239.997 140.004C240.266 140.004 240.519 139.953 240.751 139.85C240.985 139.748 241.206 139.59 241.41 139.378L241.423 139.365C241.621 139.158 241.768 138.936 241.868 138.698C241.968 138.459 242.017 138.201 242.017 137.924C242.017 137.77 242.139 137.644 242.29 137.644H242.364C242.514 137.644 242.637 137.769 242.637 137.924C242.637 138.201 242.686 138.461 242.786 138.7C242.886 138.941 243.038 139.167 243.242 139.378C243.447 139.589 243.666 139.746 243.9 139.85C244.132 139.953 244.384 140.004 244.653 140.004C244.803 140.004 244.926 140.129 244.926 140.284V140.361C244.926 140.515 244.804 140.641 244.653 140.641C244.384 140.641 244.132 140.693 243.9 140.795C243.666 140.898 243.447 141.055 243.241 141.267L243.226 141.281C243.028 141.486 242.881 141.706 242.783 141.942C242.683 142.181 242.633 142.439 242.633 142.718C242.637 142.875 242.515 143 242.364 143ZM241.795 140.87C242.022 141.105 242.2 141.359 242.326 141.634C242.451 141.366 242.623 141.118 242.846 140.888L242.859 140.872C243.086 140.638 243.334 140.455 243.601 140.325C243.334 140.194 243.086 140.011 242.859 139.777C242.632 139.543 242.454 139.286 242.326 139.011C242.202 139.278 242.029 139.527 241.81 139.758L241.795 139.775C241.568 140.009 241.32 140.192 241.053 140.322C241.314 140.45 241.556 140.628 241.778 140.855L241.795 140.87ZM247.537 137.179H247.4C247.251 137.179 247.128 137.054 247.128 136.899C247.128 136.36 247.03 135.856 246.836 135.388C246.642 134.918 246.346 134.481 245.951 134.074C245.556 133.667 245.131 133.365 244.677 133.163C244.223 132.963 243.734 132.862 243.209 132.862C243.06 132.862 242.937 132.737 242.937 132.582V132.442C242.937 132.288 243.058 132.161 243.209 132.161C243.734 132.161 244.222 132.061 244.677 131.861C245.133 131.659 245.558 131.355 245.951 130.95C246.345 130.543 246.64 130.104 246.836 129.634C247.03 129.166 247.128 128.663 247.128 128.127C247.128 127.973 247.249 127.846 247.4 127.846H247.537C247.686 127.846 247.809 127.971 247.809 128.127C247.809 128.665 247.907 129.169 248.101 129.637C248.297 130.107 248.591 130.546 248.984 130.951C249.377 131.357 249.802 131.661 250.26 131.861C250.715 132.061 251.203 132.161 251.728 132.161C251.877 132.161 252 132.286 252 132.442V132.582C252 132.736 251.879 132.862 251.728 132.862C251.205 132.862 250.715 132.963 250.26 133.163C249.804 133.365 249.377 133.667 248.984 134.072C248.591 134.479 248.295 134.916 248.101 135.386C247.907 135.855 247.809 136.357 247.809 136.897C247.809 137.054 247.688 137.179 247.537 137.179ZM247.336 135.171C247.386 135.291 247.43 135.414 247.469 135.537C247.507 135.414 247.551 135.291 247.601 135.171C247.825 134.633 248.157 134.135 248.601 133.681C249.045 133.224 249.527 132.883 250.048 132.652C250.164 132.601 250.282 132.555 250.403 132.515C250.284 132.476 250.164 132.43 250.048 132.378C249.527 132.149 249.045 131.806 248.602 131.35L248.601 131.348C248.157 130.892 247.825 130.396 247.601 129.859C247.551 129.74 247.507 129.617 247.469 129.492C247.43 129.615 247.386 129.736 247.336 129.856C247.113 130.393 246.78 130.89 246.336 131.346C245.893 131.804 245.41 132.148 244.889 132.377C244.773 132.428 244.653 132.474 244.534 132.514C244.653 132.553 244.773 132.599 244.889 132.65C245.412 132.881 245.893 133.223 246.336 133.679C246.78 134.135 247.113 134.633 247.336 135.171Z" fill="#FFC700"/>
</g>
<defs>
<clipPath id="clip0_2031_4485">
<rect width="56" height="57" fill="white"/>
</clipPath>
<clipPath id="clip1_2031_4485">
<rect width="26" height="27" fill="white" transform="matrix(1 0 0 -1 16 221)"/>
</clipPath>
<clipPath id="clip2_2031_4485">
<rect width="52" height="55" fill="white" transform="matrix(1 0 0 -1 157 262)"/>
</clipPath>
<clipPath id="clip3_2031_4485">
<rect width="20" height="21" fill="white" transform="translate(232 122)"/>
</clipPath>
</defs>
</svg>
