<svg width="512" height="512" viewBox="0 0 512 512" fill="none" xmlns="http://www.w3.org/2000/svg">
<path d="M256 0C114.837 0 0 114.837 0 256C0 397.163 114.837 512 256 512C258.581 512 261.099 511.68 263.68 511.616L264.576 511.787C265.28 511.915 265.963 512 266.667 512C267.648 512 268.651 511.872 269.59 511.595L270.785 511.254C405.056 503.509 512 392.171 512 256C512 114.837 397.163 0 256 0ZM408.149 434.325C407.146 431.061 404.885 428.309 401.6 427.221L345.451 408.533C325.846 400.362 316.715 368.981 314.582 356.394C329.11 342.89 342.529 322.773 342.529 304.597C342.529 298.41 344.278 296.042 343.937 295.978C347.265 295.146 349.974 292.778 351.254 289.599C352.299 286.975 361.494 263.53 361.494 247.722C361.494 246.847 361.387 245.973 361.174 245.141C359.83 239.786 356.694 234.389 352.001 231.018V181.354C352.001 150.655 342.657 137.791 332.758 130.346C330.539 115.071 314.177 85.354 256.001 85.354C196.524 85.354 160.001 141.269 160.001 181.354V231.018C155.308 234.389 152.172 239.786 150.828 245.141C150.615 245.994 150.508 246.869 150.508 247.722C150.508 263.53 159.703 286.975 160.748 289.599C162.028 292.778 163.713 294.804 167.041 295.636C167.724 296.041 169.473 298.431 169.473 304.596C169.473 322.772 182.892 342.889 197.42 356.393C195.308 368.958 186.263 400.318 167.276 408.254L110.38 427.219C107.116 428.307 104.769 430.995 103.745 434.259C53.376 391.189 21.291 327.317 21.291 256C21.291 126.613 126.571 21.333 255.958 21.333C385.345 21.333 490.624 126.613 490.624 256C490.667 327.339 458.56 391.253 408.149 434.325Z" fill="#868686"/>
</svg>
