<svg width="13" height="13" viewBox="0 0 13 13" fill="none" xmlns="http://www.w3.org/2000/svg">
<path d="M12.1115 0.799814C10.9266 -0.266396 8.99857 -0.266617 7.81353 0.799226L7.81377 0.799447L5.93888 2.48687L6.80432 3.26549L8.67954 1.5777L8.67938 1.57756C9.38743 0.941515 10.5384 0.941882 11.246 1.57858C11.9537 2.21528 11.9536 3.25154 11.246 3.88846L8.43224 6.42029C8.08947 6.7288 7.6337 6.89869 7.14888 6.89869C6.66406 6.89869 6.20821 6.7288 5.86544 6.42029L5 7.19898C5.574 7.7155 6.33721 8 7.14896 8C7.96072 8 8.72393 7.7155 9.29768 7.19898L12.1115 4.66716C13.2962 3.60073 13.2962 1.8658 12.1115 0.799814Z" fill="white"/>
<path d="M4.32103 11.2244C3.61322 11.9406 2.46171 11.9404 1.75407 11.224C1.04642 10.5073 1.04642 9.34117 1.75399 8.6246L4.56744 5.77602C5.27524 5.05945 6.42683 5.05945 7.13447 5.77602L8 4.89985C6.81496 3.70009 4.88695 3.70001 3.70207 4.89985L0.888463 7.74843C-0.296168 8.94819 -0.296168 10.9004 0.888544 12.1002C1.48115 12.7001 2.25937 13.0001 3.03775 13C3.81581 13 4.59403 12.7002 5.18631 12.1006L5.18647 12.1005L7.06178 10.2013L6.19625 9.32514L4.32103 11.2244Z" fill="white"/>
</svg>
