<svg width="12" height="11" viewBox="0 0 12 11" fill="none" xmlns="http://www.w3.org/2000/svg">
<path d="M10.8 3H1.2C0.537258 3 0 3.51167 0 4.14286V9.85714C0 10.4883 0.537258 11 1.2 11H10.8C11.4627 11 12 10.4883 12 9.85714V4.14286C12 3.51167 11.4627 3 10.8 3Z" fill="white"/>
<path d="M9 3V1.22222C9 1.16329 8.84196 1.10676 8.56066 1.06509C8.27936 1.02341 7.89782 1 7.5 1H4.5C4.10218 1 3.72064 1.02341 3.43934 1.06509C3.15804 1.10676 3 1.16329 3 1.22222V3" stroke="white" stroke-linecap="round" stroke-linejoin="round"/>
</svg>
