<svg width="26" height="26" viewBox="0 0 26 26" fill="none" xmlns="http://www.w3.org/2000/svg">
<path d="M16.25 10.8333L21.1824 8.36767C21.3475 8.28516 21.531 8.24621 21.7154 8.25452C21.8998 8.26282 22.079 8.31811 22.2361 8.41513C22.3931 8.51215 22.5228 8.64769 22.6127 8.80888C22.7026 8.97008 22.7499 9.15158 22.75 9.33617V16.6638C22.7499 16.8484 22.7026 17.0299 22.6127 17.1911C22.5228 17.3523 22.3931 17.4879 22.2361 17.5849C22.079 17.6819 21.8998 17.7372 21.7154 17.7455C21.531 17.7538 21.3475 17.7149 21.1824 17.6323L16.25 15.1667V10.8333Z" stroke="#0C101D" stroke-width="1.5" stroke-linecap="round" stroke-linejoin="round"/>
<path d="M14.0833 6.5H5.41667C4.22005 6.5 3.25 7.47005 3.25 8.66667V17.3333C3.25 18.53 4.22005 19.5 5.41667 19.5H14.0833C15.28 19.5 16.25 18.53 16.25 17.3333V8.66667C16.25 7.47005 15.28 6.5 14.0833 6.5Z" stroke="#0C101D" stroke-width="1.5" stroke-linecap="round" stroke-linejoin="round"/>
</svg>
