<svg width="51" height="20" viewBox="0 0 51 20" fill="none" xmlns="http://www.w3.org/2000/svg">
<path d="M36.9293 16.1C37.0093 16.252 37.0493 16.388 37.0493 16.508C37.0573 16.62 37.0253 16.72 36.9533 16.808C36.8813 16.888 36.7613 16.972 36.5933 17.06C36.3373 17.18 36.1373 17.212 35.9933 17.156C35.8573 17.1 35.7293 16.944 35.6093 16.688L32.9333 11.036L30.2693 16.688C30.1493 16.936 30.0173 17.084 29.8733 17.132C29.7293 17.188 29.5293 17.16 29.2733 17.048C29.1133 16.968 28.9933 16.884 28.9133 16.796C28.8413 16.708 28.8093 16.604 28.8173 16.484C28.8333 16.356 28.8853 16.204 28.9733 16.028L32.2733 9.152C32.3373 9.024 32.4293 8.924 32.5493 8.852C32.6773 8.772 32.8093 8.732 32.9453 8.732C33.0413 8.732 33.1293 8.748 33.2093 8.78C33.2893 8.812 33.3613 8.86 33.4253 8.924C33.4973 8.988 33.5573 9.068 33.6053 9.164L36.9293 16.1ZM30.7973 14.936L31.3733 13.7H34.5053L35.0813 14.936H30.7973ZM39.8575 17.108C39.4895 17.108 39.1415 17.032 38.8135 16.88C38.4855 16.728 38.1975 16.52 37.9495 16.256C37.7015 15.984 37.5055 15.668 37.3615 15.308C37.2175 14.94 37.1455 14.548 37.1455 14.132C37.1455 13.732 37.2175 13.356 37.3615 13.004C37.5055 12.644 37.7015 12.332 37.9495 12.068C38.2055 11.796 38.4975 11.584 38.8255 11.432C39.1535 11.28 39.4975 11.204 39.8575 11.204C40.2415 11.204 40.5855 11.28 40.8895 11.432C41.1935 11.584 41.4495 11.796 41.6575 12.068C41.8735 12.332 42.0375 12.644 42.1495 13.004C42.2615 13.356 42.3215 13.736 42.3295 14.144C42.3295 14.552 42.2735 14.936 42.1615 15.296C42.0575 15.648 41.8975 15.96 41.6815 16.232C41.4735 16.504 41.2135 16.72 40.9015 16.88C40.5975 17.032 40.2495 17.108 39.8575 17.108ZM40.0495 15.704C40.3295 15.704 40.5775 15.64 40.7935 15.512C41.0175 15.376 41.1935 15.192 41.3215 14.96C41.4575 14.728 41.5255 14.464 41.5255 14.168C41.5255 13.864 41.4575 13.596 41.3215 13.364C41.1935 13.132 41.0175 12.948 40.7935 12.812C40.5775 12.676 40.3295 12.608 40.0495 12.608C39.7695 12.608 39.5175 12.676 39.2935 12.812C39.0695 12.94 38.8895 13.124 38.7535 13.364C38.6255 13.596 38.5615 13.864 38.5615 14.168C38.5615 14.464 38.6255 14.728 38.7535 14.96C38.8895 15.192 39.0695 15.376 39.2935 15.512C39.5255 15.64 39.7775 15.704 40.0495 15.704ZM42.2695 17.108C42.0455 17.108 41.8815 17.072 41.7775 17C41.6735 16.92 41.6055 16.796 41.5735 16.628V9.236C41.5735 9.1 41.5815 8.98 41.5975 8.876C41.6215 8.764 41.6815 8.676 41.7775 8.612C41.8815 8.54 42.0415 8.504 42.2575 8.504C42.4895 8.504 42.6535 8.536 42.7495 8.6C42.8455 8.664 42.9055 8.752 42.9295 8.864C42.9615 8.968 42.9775 9.088 42.9775 9.224V16.376C42.9775 16.512 42.9655 16.636 42.9415 16.748C42.9175 16.86 42.8535 16.948 42.7495 17.012C42.6535 17.076 42.4935 17.108 42.2695 17.108ZM46.7598 17.108C46.3918 17.108 46.0438 17.032 45.7158 16.88C45.3878 16.728 45.0998 16.52 44.8518 16.256C44.6038 15.984 44.4078 15.668 44.2638 15.308C44.1198 14.94 44.0478 14.548 44.0478 14.132C44.0478 13.732 44.1198 13.356 44.2638 13.004C44.4078 12.644 44.6038 12.332 44.8518 12.068C45.1078 11.796 45.3998 11.584 45.7278 11.432C46.0558 11.28 46.3998 11.204 46.7598 11.204C47.1438 11.204 47.4878 11.28 47.7918 11.432C48.0958 11.584 48.3518 11.796 48.5598 12.068C48.7758 12.332 48.9398 12.644 49.0518 13.004C49.1638 13.356 49.2238 13.736 49.2318 14.144C49.2318 14.552 49.1758 14.936 49.0638 15.296C48.9598 15.648 48.7998 15.96 48.5838 16.232C48.3758 16.504 48.1158 16.72 47.8038 16.88C47.4998 17.032 47.1518 17.108 46.7598 17.108ZM46.9518 15.704C47.2318 15.704 47.4798 15.64 47.6958 15.512C47.9198 15.376 48.0958 15.192 48.2238 14.96C48.3598 14.728 48.4278 14.464 48.4278 14.168C48.4278 13.864 48.3598 13.596 48.2238 13.364C48.0958 13.132 47.9198 12.948 47.6958 12.812C47.4798 12.676 47.2318 12.608 46.9518 12.608C46.6718 12.608 46.4198 12.676 46.1958 12.812C45.9718 12.94 45.7918 13.124 45.6558 13.364C45.5278 13.596 45.4638 13.864 45.4638 14.168C45.4638 14.464 45.5278 14.728 45.6558 14.96C45.7918 15.192 45.9718 15.376 46.1958 15.512C46.4278 15.64 46.6798 15.704 46.9518 15.704ZM49.1718 17.108C48.9478 17.108 48.7838 17.072 48.6798 17C48.5758 16.92 48.5078 16.796 48.4758 16.628V9.236C48.4758 9.1 48.4838 8.98 48.4998 8.876C48.5238 8.764 48.5838 8.676 48.6798 8.612C48.7838 8.54 48.9438 8.504 49.1598 8.504C49.3918 8.504 49.5558 8.536 49.6518 8.6C49.7478 8.664 49.8078 8.752 49.8318 8.864C49.8638 8.968 49.8798 9.088 49.8798 9.224V16.376C49.8798 16.512 49.8678 16.636 49.8438 16.748C49.8198 16.86 49.7558 16.948 49.6518 17.012C49.5558 17.076 49.3958 17.108 49.1718 17.108Z" fill="black"/>
<path d="M6.5957 13.0938C5.17184 13.0938 4.01758 11.7296 4.01758 10.0469C4.01758 8.36413 5.17184 7 6.5957 7C8.01956 7 9.17383 8.36413 9.17383 10.0469C9.17383 11.7296 8.01956 13.0938 6.5957 13.0938Z" fill="black"/>
<path d="M11.752 18.2076C11.752 16.16 9.44343 14.5 6.5957 14.5C3.74798 14.5 1.43945 16.16 1.43945 18.2076C1.43945 18.6452 1.79423 19 2.23183 19H10.9596C11.3972 19 11.752 18.6452 11.752 18.2076Z" fill="black"/>
<path d="M14.0988 11.7C13.8908 11.7 13.7388 11.672 13.6428 11.616C13.5468 11.552 13.4868 11.472 13.4628 11.376C13.4388 11.272 13.4268 11.16 13.4268 11.04V6.816C13.4268 6.696 13.4388 6.588 13.4628 6.492C13.4868 6.388 13.5468 6.308 13.6428 6.252C13.7468 6.196 13.9028 6.168 14.1108 6.168C14.3188 6.168 14.4668 6.2 14.5548 6.264C14.6508 6.32 14.7108 6.4 14.7348 6.504C14.7588 6.6 14.7708 6.712 14.7708 6.84V11.028C14.7708 11.156 14.7588 11.272 14.7348 11.376C14.7108 11.472 14.6508 11.552 14.5548 11.616C14.4668 11.672 14.3148 11.7 14.0988 11.7ZM11.9628 9.612C11.8508 9.612 11.7428 9.6 11.6388 9.576C11.5428 9.552 11.4668 9.492 11.4108 9.396C11.3548 9.3 11.3268 9.148 11.3268 8.94C11.3268 8.724 11.3548 8.568 11.4108 8.472C11.4748 8.376 11.5588 8.316 11.6628 8.292C11.7668 8.268 11.8788 8.256 11.9988 8.256H16.2108C16.3308 8.256 16.4388 8.268 16.5348 8.292C16.6388 8.316 16.7188 8.376 16.7748 8.472C16.8388 8.568 16.8708 8.724 16.8708 8.94C16.8708 9.148 16.8388 9.3 16.7748 9.396C16.7188 9.492 16.6428 9.552 16.5468 9.576C16.4508 9.6 16.3428 9.612 16.2228 9.612H11.9628Z" fill="black"/>
</svg>
