<svg width="178" height="178" viewBox="0 0 178 178" fill="none" xmlns="http://www.w3.org/2000/svg">
<path d="M89 0.00387573C39.8518 0.00387573 0 39.8479 0 89C0 138.152 39.8479 177.996 89 177.996C138.156 177.996 178 138.152 178 89C178 39.8479 138.156 0.00387573 89 0.00387573ZM89 26.6147C105.263 26.6147 118.441 39.797 118.441 56.0521C118.441 72.311 105.263 85.4894 89 85.4894C72.745 85.4894 59.5666 72.311 59.5666 56.0521C59.5666 39.797 72.745 26.6147 89 26.6147ZM88.9805 154.728C72.7606 154.728 57.9051 148.821 46.4468 139.043C43.6556 136.663 42.0449 133.172 42.0449 129.509C42.0449 113.023 55.3875 99.8288 71.8771 99.8288H106.131C122.624 99.8288 135.916 113.023 135.916 129.509C135.916 133.175 134.313 136.659 131.518 139.04C120.064 148.821 105.204 154.728 88.9805 154.728Z" fill="#F8CE61"/>
</svg>
