<svg width="35" height="35" viewBox="0 0 35 35" fill="none" xmlns="http://www.w3.org/2000/svg">
<circle cx="17.5" cy="17.5" r="17.5" fill="#F8CE61"/>
<circle r="3.91122" transform="matrix(-1 0 0 1 24.9765 10.2572)" fill="white"/>
<circle r="3.91122" transform="matrix(-1 0 0 1 10.7802 10.2572)" fill="white"/>
<path d="M29.7568 19.6729C29.7568 17.1127 27.6814 15.0374 25.1213 15.0374H22.5138C19.9537 15.0374 17.8783 17.1127 17.8783 19.6729V23.0046C17.8783 26.2848 20.5374 28.9439 23.8176 28.9439C27.0977 28.9439 29.7568 26.2848 29.7568 23.0046V19.6729Z" fill="white"/>
<path d="M17.8779 19.6729C17.8779 17.1127 15.8025 15.0374 13.2424 15.0374H10.6349C8.07481 15.0374 5.99942 17.1127 5.99942 19.6729V23.0046C5.99942 26.2848 8.65852 28.9439 11.9387 28.9439C15.2188 28.9439 17.8779 26.2848 17.8779 23.0046V19.6729Z" fill="white"/>
<path d="M12.8735 7.35981C12.8735 10.0313 15.1015 12.2196 17.8781 12.2196C20.6548 12.2196 22.8828 10.0313 22.8828 7.35981C22.8828 4.6883 20.6548 2.5 17.8781 2.5C15.1015 2.5 12.8735 4.6883 12.8735 7.35981Z" fill="white" stroke="#F8CE61"/>
<path d="M25.4902 22.2804C25.4902 18.0763 22.0822 14.6682 17.8781 14.6682C13.674 14.6682 10.2659 18.0763 10.2659 22.2804V29C10.2659 30.933 11.8329 32.5 13.7659 32.5H22.9902C24.3709 32.5 25.4902 31.3807 25.4902 30V22.2804Z" fill="white" stroke="#F8CE61"/>
</svg>
