<svg width="19" height="19" viewBox="0 0 19 19" fill="none" xmlns="http://www.w3.org/2000/svg">
<path d="M17.6672 1.19972C15.8899 -0.399595 12.9978 -0.399925 11.2203 1.19884L11.2207 1.19917L8.40831 3.7303L9.70648 4.89823L12.5193 2.36655L12.5191 2.36633C13.5811 1.41227 15.3077 1.41282 16.369 2.36788C17.4305 3.32293 17.4304 4.87731 16.369 5.83269L12.1484 9.63043C11.6342 10.0932 10.9505 10.348 10.2233 10.348C9.4961 10.348 8.81232 10.0932 8.29816 9.63043L7 10.7985C7.861 11.5732 9.00581 12 10.2234 12C11.4411 12 12.5859 11.5732 13.4465 10.7985L17.6673 7.00074C19.4443 5.40109 19.4443 2.79871 17.6672 1.19972Z" fill="#070707"/>
<path d="M6.48154 16.4352C5.41983 17.4698 3.69257 17.4695 2.6311 16.4346C1.56964 15.3994 1.56964 13.715 2.63098 12.68L6.85115 8.56536C7.91287 7.53032 9.64024 7.53032 10.7017 8.56536L12 7.29978C10.2224 5.5668 7.33042 5.56668 5.55311 7.29978L1.33269 11.4144C-0.444252 13.1474 -0.444252 15.9672 1.33282 17.7003C2.22172 18.5668 3.38905 19.0001 4.55663 19C5.72372 19 6.89105 18.567 7.77946 17.7009L7.77971 17.7008L10.5927 14.9574L9.29438 13.6919L6.48154 16.4352Z" fill="#070707"/>
</svg>
