<svg width="38" height="38" viewBox="0 0 38 38" fill="none" xmlns="http://www.w3.org/2000/svg">
<rect x="0.5" y="0.5" width="37" height="37" rx="18.5" stroke="#F8CE61"/>
<path d="M26.148 10H11.8593C10.8345 10 10 10.788 10 11.7556V25.2478C10 26.2155 10.8345 27 11.8556 27H26.1443C27.1691 27 28 26.212 28 25.2478V11.7556C28.0073 10.788 27.1728 10 26.148 10ZM25.8222 20.5062L23.004 17.8451C22.8467 17.6965 22.5868 17.6965 22.4294 17.8451L20.3835 19.777L16.8442 16.435C16.6868 16.2864 16.427 16.2864 16.2696 16.435L12.185 20.285V12.0632H25.8222V20.5062Z" fill="#727272"/>
</svg>
