<svg width="12" height="11" viewBox="0 0 12 11" fill="none" xmlns="http://www.w3.org/2000/svg">
<path d="M0.146557 4.64376L4.64392 0.146404C4.78683 0.00398237 5.0012 -0.039498 5.18859 0.0379712C5.37547 0.114928 5.49691 0.297828 5.49691 0.499712V2.50054C8.37222 2.61846 10.8807 4.55983 11.6843 7.34169C12.0321 8.54799 12.0051 9.52791 11.9951 9.8972L11.9931 9.99413C11.9931 10.219 11.8427 10.4164 11.6263 10.4759C11.5818 10.4879 11.5374 10.4938 11.4934 10.4938C11.3205 10.4938 11.1556 10.4034 11.0641 10.25C9.08481 6.92294 6.46235 6.82849 5.49691 6.92245V9.49445C5.49691 9.69634 5.37547 9.87924 5.18859 9.95619C5.0012 10.0342 4.78683 9.99067 4.64392 9.84776L0.146557 5.3504C-0.048811 5.15496 -0.048811 4.83913 0.146557 4.64376Z" fill="black"/>
</svg>
