<svg width="20" height="20" viewBox="0 0 20 20" fill="none" xmlns="http://www.w3.org/2000/svg">
<path d="M17 4V18C17 18.5304 16.7893 19.0391 16.4142 19.4142C16.0391 19.7893 15.5304 20 15 20H5C4.46957 20 3.96086 19.7893 3.58579 19.4142C3.21071 19.0391 3 18.5304 3 18V4H17ZM6 3.5V2C6 1.46957 6.21071 0.960859 6.58579 0.585786C6.96086 0.210714 7.46957 0 8 0H12C12.5304 0 13.0391 0.210714 13.4142 0.585786C13.7893 0.960859 14 1.46957 14 2V3.5" fill="black"/>
<path d="M1 3H3H19" stroke="black" stroke-linecap="round" stroke-linejoin="round"/>
</svg>
