<svg width="12" height="12" viewBox="0 0 12 12" fill="none" xmlns="http://www.w3.org/2000/svg">
<path d="M11.8534 5.26317L7.35608 0.765811C7.21317 0.62339 6.9988 0.57991 6.81141 0.657379C6.62453 0.734336 6.50309 0.917236 6.50309 1.11912V3.11995C3.62778 3.23787 1.11927 5.17924 0.315737 7.9611C-0.0320566 9.1674 -0.00507049 10.1473 0.004909 10.5166L0.00690978 10.6135C0.00690978 10.8384 0.15731 11.0358 0.373687 11.0953C0.418167 11.1073 0.462624 11.1132 0.506616 11.1132C0.679513 11.1132 0.844406 11.0228 0.935856 10.8694C2.91519 7.54235 5.53765 7.4479 6.50309 7.54186V10.1139C6.50309 10.3157 6.62453 10.4986 6.81141 10.5756C6.9988 10.6536 7.21317 10.6101 7.35608 10.4672L11.8534 5.96981C12.0488 5.77437 12.0488 5.45854 11.8534 5.26317Z" fill="black"/>
</svg>
