<svg width="36" height="36" viewBox="0 0 36 36" fill="none" xmlns="http://www.w3.org/2000/svg">
<mask id="path-1-inside-1_6123_6796" fill="white">
<path d="M18 36C13.2261 36 8.64773 34.1036 5.27207 30.7279C1.89642 27.3523 -4.81018e-06 22.7739 -4.6015e-06 18C-4.39283e-06 13.2261 1.89642 8.64773 5.27207 5.27208C8.64773 1.89642 13.2261 -2.7464e-07 18 -7.86805e-07L18 0.98021C13.4861 0.980211 9.15702 2.77336 5.96519 5.96519C2.77336 9.15702 0.980205 13.4861 0.980209 18C0.980208 22.5139 2.77336 26.843 5.96519 30.0348C9.15702 33.2266 13.4861 35.0198 18 35.0198L18 36Z"/>
</mask>
<path d="M18 36C13.2261 36 8.64773 34.1036 5.27207 30.7279C1.89642 27.3523 -4.81018e-06 22.7739 -4.6015e-06 18C-4.39283e-06 13.2261 1.89642 8.64773 5.27207 5.27208C8.64773 1.89642 13.2261 -2.7464e-07 18 -7.86805e-07L18 0.98021C13.4861 0.980211 9.15702 2.77336 5.96519 5.96519C2.77336 9.15702 0.980205 13.4861 0.980209 18C0.980208 22.5139 2.77336 26.843 5.96519 30.0348C9.15702 33.2266 13.4861 35.0198 18 35.0198L18 36Z" stroke="#F8CE61" stroke-width="7.2" mask="url(#path-1-inside-1_6123_6796)"/>
<circle cx="18" cy="18" r="17.5" transform="rotate(90 18 18)" stroke="#F8CE61" stroke-linejoin="round" stroke-dasharray="3 3"/>
<path d="M18.7659 12.5273V23H17.4977V13.8568H17.4364L14.8795 15.5545V14.2659L17.4977 12.5273H18.7659Z" fill="#F8CE61"/>
</svg>
