<svg width="44" height="44" viewBox="0 0 44 44" fill="none" xmlns="http://www.w3.org/2000/svg">
<circle cx="22" cy="22" r="22" fill="#F8CE61"/>
<path d="M27 19C28.6569 19 30 17.6569 30 16C30 14.3431 28.6569 13 27 13C25.3431 13 24 14.3431 24 16C24 17.6569 25.3431 19 27 19Z" stroke="black" stroke-linecap="round" stroke-linejoin="round"/>
<path d="M15 26C16.6569 26 18 24.6569 18 23C18 21.3431 16.6569 20 15 20C13.3431 20 12 21.3431 12 23C12 24.6569 13.3431 26 15 26Z" stroke="black" stroke-linecap="round" stroke-linejoin="round"/>
<path d="M27 33C28.6569 33 30 31.6569 30 30C30 28.3431 28.6569 27 27 27C25.3431 27 24 28.3431 24 30C24 31.6569 25.3431 33 27 33Z" stroke="black" stroke-linecap="round" stroke-linejoin="round"/>
<path d="M17.5898 24.51L24.4198 28.49" stroke="black" stroke-linecap="round" stroke-linejoin="round"/>
<path d="M24.4098 17.51L17.5898 21.49" stroke="black" stroke-linecap="round" stroke-linejoin="round"/>
</svg>
