<svg width="44" height="44" viewBox="0 0 44 44" fill="none" xmlns="http://www.w3.org/2000/svg">
<circle cx="22" cy="22" r="22" fill="#F8CE61"/>
<path d="M28 32V30C28 28.9391 27.5786 27.9217 26.8284 27.1716C26.0783 26.4214 25.0609 26 24 26H16C14.9391 26 13.9217 26.4214 13.1716 27.1716C12.4214 27.9217 12 28.9391 12 30V32" stroke="black" stroke-linecap="round" stroke-linejoin="round"/>
<path d="M20 22C22.2091 22 24 20.2091 24 18C24 15.7909 22.2091 14 20 14C17.7909 14 16 15.7909 16 18C16 20.2091 17.7909 22 20 22Z" stroke="black" stroke-linecap="round" stroke-linejoin="round"/>
<path d="M26.375 18.5781V17.2656H29.7812V13.8359H31.1172V17.2656H34.5234V18.5781H31.1172V22H29.7812V18.5781H26.375Z" fill="black" fill-opacity="0.5"/>
</svg>
