<svg width="17" height="15" viewBox="0 0 17 15" fill="none" xmlns="http://www.w3.org/2000/svg">
<path d="M1.96154 0H15.0385C15.5587 0 16.0576 0.182348 16.4255 0.506931C16.7933 0.831513 17 1.27174 17 1.73077V10.9615C17 11.4206 16.7933 11.8608 16.4255 12.1854C16.0576 12.51 15.5587 12.6923 15.0385 12.6923H4.61615C4.44871 12.6913 4.28723 12.7471 4.165 12.8481L1.03962 14.8846C0.92823 14.9583 0.793079 14.9988 0.653847 15C0.551493 14.9995 0.45071 14.9777 0.359615 14.9365C0.251787 14.8886 0.16111 14.8152 0.0976334 14.7246C0.0341587 14.634 0.000366211 14.5296 0 14.4231V1.73077C0 1.27174 0.206661 0.831513 0.574522 0.506931C0.942381 0.182348 1.44131 0 1.96154 0ZM1.30769 13.2692L3.36077 11.9423C3.71277 11.6822 4.15702 11.5393 4.61615 11.5385H15.0385C15.2119 11.5385 15.3782 11.4777 15.5008 11.3695C15.6234 11.2613 15.6923 11.1145 15.6923 10.9615V1.73077C15.6923 1.57776 15.6234 1.43102 15.5008 1.32282C15.3782 1.21463 15.2119 1.15385 15.0385 1.15385H1.96154C1.78813 1.15385 1.62182 1.21463 1.4992 1.32282C1.37658 1.43102 1.30769 1.57776 1.30769 1.73077V13.2692Z" fill="#231F20"/>
</svg>
