<svg width="23" height="22" viewBox="0 0 23 22" fill="none" xmlns="http://www.w3.org/2000/svg">
<path fill-rule="evenodd" clip-rule="evenodd" d="M8.38996 1.375C4.29929 1.375 1.21053 4.40131 1.21053 7.84754C1.21053 9.80128 2.18055 11.5962 3.78581 12.8096C4.00403 12.9746 4.10396 13.2804 4.03339 13.5671L3.53619 15.587L5.33755 14.3366C5.50369 14.2214 5.70855 14.2038 5.88801 14.2897C6.19216 14.435 7.00507 14.7208 7.71887 14.6873C8.05287 14.6717 8.33478 14.9666 8.34852 15.346C8.36227 15.7253 8.10266 16.0456 7.76866 16.0612C6.99965 16.0971 6.20472 15.8718 5.71758 15.6842L2.85461 17.6715C2.64236 17.8188 2.37235 17.8036 2.17395 17.6333C1.97553 17.4628 1.88912 17.1718 1.9561 16.8997L2.7526 13.6639C1.08662 12.2506 0 10.1875 0 7.84754C0 3.38506 3.88189 0 8.38996 0C12.7648 0 16.5385 3.17961 16.7691 7.44384C16.7795 7.63703 16.7177 7.82637 16.599 7.9651C16.4802 8.10398 16.3154 8.17947 16.145 8.17314C16.0634 8.17012 15.9815 8.1686 15.8991 8.1686C12.5237 8.1686 10.0085 10.6763 10.0085 13.4901C10.0085 13.9156 10.064 14.3289 10.1688 14.7254C10.7687 16.9938 13.0446 18.8118 15.8991 18.8118C16.5035 18.8118 17.0855 18.7292 17.6326 18.5767C17.7874 18.5335 17.9509 18.5614 18.0877 18.6542L19.7917 19.8121L19.4069 18.3586C19.3299 18.0679 19.4299 17.7541 19.653 17.5869C20.9888 16.5851 21.7895 15.0996 21.7895 13.4901C21.7895 11.3858 20.4075 9.47307 18.2717 8.6196C17.9563 8.49365 17.7906 8.10109 17.9015 7.7429C18.0125 7.38477 18.358 7.19655 18.6733 7.32255C21.1523 8.31312 23 10.6484 23 13.4901C23 15.4809 22.0868 17.2325 20.6914 18.4356L21.4007 21.1145C21.4726 21.3864 21.3901 21.6803 21.193 21.8548C20.996 22.0293 20.7247 22.0481 20.5103 21.9025L17.675 19.9761C17.1066 20.1138 16.5113 20.1868 15.8991 20.1868C12.6461 20.1868 9.79909 18.1063 9.00947 15.121C8.87141 14.5991 8.798 14.0525 8.798 13.4901C8.798 9.80925 11.8573 7.00944 15.4756 6.80547C14.9301 3.81592 12.0585 1.375 8.38996 1.375Z" fill="black"/>
</svg>
