<svg width="33" height="34" viewBox="0 0 33 34" fill="none" xmlns="http://www.w3.org/2000/svg">
<path d="M18.4155 0.5C16.9013 0.5 17.4105 3.73616 17.4105 3.73616C17.4105 3.73616 14.1743 12.6607 11.0789 15.0393C10.4155 15.7361 10.0001 16.5066 9.73883 17.1364C9.67853 17.2905 9.62493 17.4379 9.57803 17.5719C9.37032 17.994 8.92812 18.6439 7.9834 19.2135L11.0789 32.674C11.0789 32.674 15.8694 33.2971 20.6734 33.1966C22.5964 33.3507 24.6332 33.3641 26.2546 33.0157C31.7621 31.8432 30.3819 28.004 30.3819 28.004C33.3501 25.7729 31.6616 22.9856 31.6616 22.9856C34.3015 20.2319 31.7085 17.9203 31.7085 17.9203C31.7085 17.9203 33.1357 15.6959 31.2931 14.0142C28.995 11.9103 22.7572 13.3106 22.7572 13.3106C22.3217 13.3843 21.8594 13.4781 21.3636 13.5987C21.3636 13.5987 19.2061 14.6038 21.3636 8.05774C23.5277 1.51172 19.9297 0.5 18.4155 0.5Z" fill="black"/>
<path d="M8.85417 31.7026L6.50912 20.5602C6.37512 19.9237 5.73191 19.4011 5.08199 19.4011H0.606309L0.599609 32.855H7.90945C8.56606 32.8617 8.98817 32.3391 8.85417 31.7026Z" fill="black"/>
</svg>
