<svg width="19" height="23" viewBox="0 0 19 23" fill="none" xmlns="http://www.w3.org/2000/svg">
<path d="M19 9.2C19 16.1 9.5 23 9.5 23C9.5 23 0 16.1 0 9.2C0 6.76001 1.00089 4.41995 2.78249 2.69462C4.56408 0.969283 6.98044 0 9.5 0C12.0196 0 14.4359 0.969283 16.2175 2.69462C17.9991 4.41995 19 6.76001 19 9.2Z" fill="black"/>
<path d="M9.49922 11.4999C11.5979 11.4999 13.2992 10.0288 13.2992 8.21418C13.2992 6.39953 11.5979 4.92847 9.49922 4.92847C7.40054 4.92847 5.69922 6.39953 5.69922 8.21418C5.69922 10.0288 7.40054 11.4999 9.49922 11.4999Z" fill="white"/>
</svg>
