<svg width="43" height="36" viewBox="0 0 43 36" fill="none" xmlns="http://www.w3.org/2000/svg">
<path d="M16.3547 0H10.607H5.84326C4.2283 0 2.84989 0.569174 1.70805 1.71596C0.566549 2.8631 0 4.24789 0 5.87033V16.1756C0 17.8065 0.566549 19.1916 1.70805 20.3384C2.84954 21.4767 4.2283 22.0547 5.84326 22.0547C7.34834 22.0547 8.85377 22.0547 10.3589 22.0547C10.0292 23.346 9.60649 24.5782 9.09068 25.7331C8.58327 26.8971 7.72907 28.0101 6.53684 29.0718C8.82018 28.4773 10.8498 27.5851 12.6338 26.4045C14.4181 25.2321 15.9572 23.7791 17.2425 22.0547C18.5341 22.0547 19.8264 22.0547 21.118 22.0547C22.733 22.0547 24.1114 21.4767 25.2529 20.3384C26.3951 19.1916 26.9617 17.8065 26.9617 16.1756V5.87033C26.9617 4.24789 26.3951 2.86275 25.2529 1.71596C24.1114 0.569174 22.733 0 21.118 0H16.3547ZM43 11.8345V22.1398C43 23.0774 42.8338 23.9535 42.4989 24.7691C42.1654 25.5826 41.6678 26.3216 41.0061 26.9867C40.7184 27.2729 40.4168 27.5299 40.1018 27.7559C39.7771 27.988 39.4464 28.1852 39.108 28.3469C39.0901 28.3554 39.0716 28.3634 39.0534 28.3708C38.6209 28.573 38.1698 28.7255 37.7016 28.8275C37.2155 28.9337 36.7134 28.9867 36.193 28.9867H33.1367H33.1304H33.1241H33.1178H33.1122H32.9487C33.0138 29.1942 33.0814 29.3998 33.151 29.6037C33.3498 30.1799 33.5734 30.7474 33.8222 31.3042L33.8257 31.3116H33.8264C34.0507 31.8259 34.3499 32.3276 34.7236 32.8159C35.1093 33.3201 35.5799 33.8193 36.1349 34.3139C36.5321 34.6669 36.5688 35.2761 36.2182 35.6748C35.9708 35.9557 35.5964 36.0573 35.2587 35.9694L35.258 35.9698C34.0661 35.659 32.9396 35.2712 31.8797 34.8065C30.819 34.342 29.8182 33.7975 28.8772 33.1745L28.8751 33.1773C27.9401 32.5632 27.0652 31.8713 26.2527 31.1042C25.5637 30.4538 24.9205 29.7482 24.3231 28.9867H23.9984H23.9928H23.9858H23.9802H23.9739H20.9172C20.281 28.9867 19.6714 28.9069 19.0895 28.7491C18.5068 28.5909 17.9518 28.3504 17.4251 28.0291C16.972 27.7535 16.8271 27.1611 17.1015 26.7058C17.3758 26.2506 17.9655 26.105 18.4186 26.3806C18.7794 26.6007 19.1689 26.7681 19.5864 26.8813C20.0014 26.9938 20.4451 27.0507 20.9172 27.0507H23.9739H23.9802H23.9858H23.9928H23.9984H24.7931V27.0546C25.0849 27.0546 25.3726 27.1878 25.5605 27.4402C26.1666 28.2534 26.8371 29.0068 27.5691 29.698C28.2921 30.3803 29.0795 31.0015 29.9284 31.5595L29.9263 31.5623L29.9284 31.5633C30.735 32.0973 31.6001 32.5705 32.5243 32.9829C32.3493 32.6855 32.196 32.3856 32.0644 32.0826C31.8013 31.4916 31.5588 30.8739 31.3366 30.2309C31.1259 29.6199 30.9373 28.9917 30.7707 28.349C30.734 28.2457 30.7133 28.1346 30.7133 28.0186C30.7133 27.4838 31.1445 27.0507 31.6764 27.0507H33.1118H33.1174H33.1237H33.13H33.1363H36.1927C36.58 27.0507 36.9471 27.0127 37.2943 26.9368C37.6243 26.8651 37.9381 26.76 38.2352 26.6222C38.2496 26.6144 38.2646 26.6067 38.2797 26.5997C38.5306 26.4794 38.7672 26.3406 38.9869 26.1827C39.2165 26.0178 39.438 25.8298 39.65 25.6181C40.1298 25.1365 40.4867 24.6091 40.7219 24.0357C40.9564 23.4648 41.0725 22.8331 41.0725 22.1394V11.8345C41.0725 11.1455 40.9564 10.5158 40.7219 9.94561C40.4867 9.37327 40.1302 8.84628 39.65 8.36429L39.6465 8.36043C39.1668 7.87844 38.6426 7.51985 38.0725 7.28395C37.5053 7.04876 36.8785 6.93169 36.1923 6.93169H33.4373H31.4293C30.8971 6.93169 30.4656 6.49822 30.4656 5.96385C30.4656 5.42913 30.8967 4.99601 31.4293 4.99601H33.4373H36.1923C37.1217 4.99601 37.992 5.16335 38.8025 5.49944C39.6098 5.83412 40.3443 6.33263 41.0054 6.99567L41.0068 6.99743L41.0089 6.99919L41.0096 6.99989C41.6699 7.66364 42.1654 8.40121 42.4982 9.2119C42.8338 10.0268 43 10.9011 43 11.8345Z" fill="black"/>
</svg>
