<svg width="18" height="23" viewBox="0 0 18 23" fill="none" xmlns="http://www.w3.org/2000/svg">
<path d="M14.7696 22.1576L14.7691 22.1573L9.88905 19.0418L9.87779 19.0346L9.86616 19.028C9.50258 18.8224 9.09822 18.7131 8.685 18.7131C8.27179 18.7131 7.86742 18.8224 7.50384 19.028L7.49221 19.0346L7.48095 19.0418L2.60257 22.1562C2.60224 22.1565 2.60191 22.1567 2.60159 22.1569C1.91375 22.5919 1.42154 22.5466 1.12282 22.3443C0.797103 22.1238 0.5 21.5877 0.5 20.6358V4.43809C0.502264 3.37371 0.871647 2.36528 1.51044 1.6309C2.14728 0.898771 2.99429 0.502509 3.86069 0.5H13.4989C14.3663 0.503875 15.2139 0.900546 15.8521 1.63234C16.4921 2.36625 16.864 3.37388 16.87 4.43887V20.6358C16.87 21.5947 16.5722 22.1329 16.2472 22.3529C15.9501 22.5541 15.4588 22.5989 14.7696 22.1576Z" stroke="black"/>
</svg>
