<svg width="25" height="32" viewBox="0 0 25 32" fill="none" xmlns="http://www.w3.org/2000/svg">
<path d="M16.148 14H1.85929C0.834483 14 0 14.8343 0 15.8589V30.1447C0 31.1693 0.834483 32 1.85563 32H16.1443C17.1691 32 18 31.1657 18 30.1447V15.8589C18.0073 14.8343 17.1728 14 16.148 14ZM15.8222 25.1242L13.004 22.3066C12.8467 22.1492 12.5868 22.1492 12.4294 22.3066L10.3835 24.3521L6.84423 20.8136C6.68685 20.6562 6.42699 20.6562 6.26961 20.8136L2.18503 24.89V16.1846H15.8222V25.1242Z" fill="#00D715"/>
<path d="M16.0469 11.5781V10.2656H19.4531V6.83594H20.7891V10.2656H24.1953V11.5781H20.7891V15H19.4531V11.5781H16.0469Z" fill="#00D715"/>
</svg>
