<svg width="30" height="30" viewBox="0 0 30 30" fill="none" xmlns="http://www.w3.org/2000/svg">
<path d="M14.9995 2.49994C13.4427 2.50543 11.9505 3.12264 10.8446 4.21842C9.73883 5.3142 9.10805 6.80074 9.08837 8.35739C9.06868 9.91405 9.66167 11.4161 10.7394 12.5395C11.8172 13.6628 13.2933 14.3176 14.8495 14.3624C14.9407 14.3499 15.0332 14.3499 15.1245 14.3624H15.212C16.7744 14.3188 18.2565 13.6602 19.3362 12.5299C20.4158 11.3996 21.0058 9.88884 20.9778 8.326C20.9498 6.76316 20.3061 5.27452 19.1867 4.1836C18.0672 3.09267 16.5625 2.48762 14.9995 2.49994Z" fill="black"/>
<path d="M21.3492 17.6876C19.43 16.5463 17.2384 15.9438 15.0055 15.9438C12.7725 15.9438 10.5809 16.5463 8.66172 17.6876C7.94599 18.1005 7.34545 18.6866 6.91519 19.3921C6.48493 20.0975 6.23874 20.8997 6.19922 21.7251C6.23781 22.5458 6.48249 23.3436 6.91067 24.0449C7.33886 24.7462 7.93676 25.3283 8.64922 25.7376C10.5498 26.9293 12.7563 27.5418 14.9992 27.5001C17.2421 27.5418 19.4487 26.9293 21.3492 25.7376C22.0628 25.3233 22.661 24.7366 23.089 24.0312C23.517 23.3258 23.7612 22.5243 23.7992 21.7001C23.758 20.88 23.5123 20.0832 23.0843 19.3823C22.6564 18.6815 22.0599 18.0989 21.3492 17.6876Z" fill="black"/>
<path d="M29.9139 7.86058L25.9665 3.91323C25.9349 3.88157 25.8964 3.85762 25.8541 3.84318L24.1897 3.27529C24.0841 3.23928 23.9672 3.26642 23.8883 3.34533L23.3235 3.91009L22.4996 3.08621C22.3853 2.97192 22.2 2.97192 22.0857 3.08621C21.9714 3.2005 21.9714 3.3858 22.0857 3.50009L22.9096 4.32397L22.345 4.88865C22.266 4.96755 22.2389 5.08448 22.2749 5.1901L22.8428 6.85444C22.8572 6.89678 22.8812 6.93525 22.9128 6.96689L26.8602 10.9142C26.9745 11.0285 27.1598 11.0285 27.2741 10.9142L29.9139 8.27446C30.0282 8.16017 30.0282 7.97488 29.9139 7.86058ZM25.5505 6.55083C25.2096 6.89173 24.6578 6.89175 24.3169 6.55083C23.9768 6.21072 23.9768 5.65736 24.3169 5.31725C24.6578 4.97635 25.2095 4.97633 25.5505 5.31725C25.8906 5.65736 25.8906 6.21072 25.5505 6.55083Z" fill="black"/>
</svg>
