<svg width="17" height="16" viewBox="0 0 17 16" fill="none" xmlns="http://www.w3.org/2000/svg">
<path fill-rule="evenodd" clip-rule="evenodd" d="M6.20128 1C3.17774 1 0.894737 3.20095 0.894737 5.7073C0.894737 7.1282 1.61171 8.43361 2.79821 9.31611C2.9595 9.43611 3.03336 9.6585 2.9812 9.867L2.61371 11.336L3.94515 10.4266C4.06795 10.3428 4.21936 10.33 4.35201 10.3925C4.57681 10.4982 5.17766 10.706 5.70525 10.6817C5.95212 10.6703 6.16049 10.8848 6.17064 11.1607C6.18081 11.4366 5.98892 11.6695 5.74205 11.6809C5.17366 11.707 4.5861 11.5431 4.22604 11.4067L2.10993 12.852C1.95305 12.9591 1.75348 12.9481 1.60683 12.8242C1.46017 12.7002 1.39631 12.4886 1.44581 12.2907L2.03453 9.93741C0.803152 8.9095 0 7.4091 0 5.7073C0 2.46186 2.86922 0 6.20128 0C9.43482 0 12.2241 2.31244 12.3945 5.4137C12.4022 5.5542 12.3566 5.6919 12.2688 5.7928C12.181 5.8938 12.0592 5.9487 11.9333 5.9441C11.873 5.9419 11.8124 5.9408 11.7515 5.9408C9.25668 5.9408 7.3976 7.7646 7.3976 9.811C7.3976 10.1204 7.43857 10.421 7.51606 10.7094C7.95949 12.3591 9.64168 13.6813 11.7515 13.6813C12.1982 13.6813 12.6284 13.6212 13.0328 13.5103C13.1472 13.4789 13.2681 13.4992 13.3692 13.5667L14.6287 14.4088L14.3442 13.3517C14.2873 13.1403 14.3612 12.9121 14.5261 12.7905C15.5135 12.0619 16.1053 10.9815 16.1053 9.811C16.1053 8.2806 15.0838 6.8895 13.5052 6.2688C13.2721 6.1772 13.1496 5.8917 13.2315 5.6312C13.3136 5.37074 13.569 5.23385 13.802 5.32549C15.6343 6.0459 17 7.7443 17 9.811C17 11.2588 16.325 12.5327 15.2936 13.4077L15.8179 15.356C15.871 15.5537 15.8101 15.7675 15.6644 15.8944C15.5188 16.0213 15.3183 16.035 15.1598 15.9291L13.0641 14.5281C12.644 14.6282 12.204 14.6813 11.7515 14.6813C9.34714 14.6813 7.24281 13.1682 6.65918 10.9971C6.55713 10.6175 6.50287 10.22 6.50287 9.811C6.50287 7.134 8.76413 5.09777 11.4385 4.94943C11.0353 2.77521 8.91283 1 6.20128 1Z" fill="black"/>
</svg>
