<svg width="16" height="16" viewBox="0 0 16 16" fill="none" xmlns="http://www.w3.org/2000/svg">
<path d="M15 8V13C15 14.1046 14.1046 15 13 15H3C1.89543 15 1 14.1046 1 13V3C1 1.89543 1.89543 1 3 1H8" stroke="black" stroke-linecap="round"/>
<path d="M8.48769 6.64645C8.29243 6.84171 8.29243 7.15829 8.48769 7.35355C8.68296 7.54882 8.99954 7.54882 9.1948 7.35355L8.48769 6.64645ZM15.3412 1C15.3412 0.723858 15.1174 0.5 14.8412 0.5L10.3412 0.500001C10.0651 0.5 9.84125 0.723858 9.84125 1C9.84125 1.27614 10.0651 1.5 10.3412 1.5L14.3412 1.5L14.3412 5.5C14.3412 5.77614 14.5651 6 14.8412 6C15.1174 6 15.3412 5.77614 15.3412 5.5L15.3412 1ZM9.1948 7.35355L15.1948 1.35355L14.4877 0.646447L8.48769 6.64645L9.1948 7.35355Z" fill="black"/>
</svg>
