<svg width="15" height="15" viewBox="0 0 15 15" fill="none" xmlns="http://www.w3.org/2000/svg">
<path d="M11.8611 8.76446C11.5535 8.46286 11.1826 8.30161 10.7894 8.30161C10.3995 8.30161 10.0254 8.45987 9.70514 8.76147L8.70328 9.7021C8.62085 9.6603 8.53842 9.62148 8.45915 9.58266C8.34502 9.52891 8.23722 9.47814 8.14528 9.42439C7.20682 8.863 6.35397 8.1314 5.53599 7.18479C5.13968 6.71298 4.87336 6.31583 4.67996 5.9127C4.93994 5.68874 5.1809 5.45582 5.41551 5.23186C5.50428 5.14825 5.59306 5.06165 5.68183 4.97804C6.34763 4.35095 6.34763 3.53873 5.68183 2.91164L4.81629 2.09642C4.71801 2.00385 4.61655 1.9083 4.52144 1.81274C4.33121 1.6276 4.13147 1.43649 3.92539 1.25732C3.61786 0.970652 3.25009 0.818359 2.86329 0.818359C2.47649 0.818359 2.10238 0.970652 1.78533 1.25732C1.78216 1.26031 1.78216 1.26031 1.77899 1.26329L0.701036 2.28754C0.295217 2.66976 0.0637734 3.1356 0.013046 3.67609C-0.0630451 4.54804 0.209615 5.36027 0.418865 5.8918C0.93248 7.19674 1.69973 8.40612 2.84427 9.7021C4.23293 11.2638 5.90376 12.4971 7.81238 13.3661C8.54159 13.6916 9.51492 14.0768 10.6024 14.1425C10.669 14.1455 10.7387 14.1485 10.8021 14.1485C11.5345 14.1485 12.1496 13.9006 12.6315 13.4079C12.6347 13.4019 12.641 13.3989 12.6442 13.393C12.809 13.2048 12.9993 13.0346 13.199 12.8525C13.3353 12.73 13.4748 12.6016 13.6112 12.4673C13.925 12.1597 14.0899 11.8014 14.0899 11.4341C14.0899 11.0638 13.9219 10.7084 13.6016 10.4098L11.8611 8.76446ZM12.9961 11.9089C12.9929 11.9089 12.9929 11.9118 12.9961 11.9089C12.8724 12.0343 12.7456 12.1477 12.6093 12.2732C12.4032 12.4583 12.194 12.6524 11.9974 12.8704C11.6772 13.1929 11.2999 13.3452 10.8053 13.3452C10.7577 13.3452 10.707 13.3452 10.6595 13.3422C9.71783 13.2855 8.84278 12.9391 8.18649 12.6434C6.39201 11.8252 4.81629 10.6636 3.50689 9.19147C2.42577 7.96417 1.7029 6.82944 1.22416 5.6111C0.929309 4.86755 0.821514 4.28824 0.86907 3.74178C0.900775 3.39241 1.04345 3.10275 1.30659 2.8549L2.38772 1.83663C2.54307 1.69927 2.70794 1.62461 2.86963 1.62461C3.06937 1.62461 3.23106 1.73809 3.33252 1.83364C3.33569 1.83663 3.33886 1.83962 3.34203 1.8426C3.53543 2.01281 3.71931 2.18899 3.91271 2.37712C4.011 2.47268 4.11245 2.56823 4.21391 2.66678L5.07944 3.48199C5.41551 3.79852 5.41551 4.09116 5.07944 4.40769C4.9875 4.49429 4.89873 4.58089 4.80678 4.6645C4.54046 4.9213 4.28683 5.16019 4.011 5.39311C4.00466 5.39909 3.99832 5.40207 3.99514 5.40804C3.72249 5.66485 3.77321 5.91569 3.83028 6.0859C3.83345 6.09485 3.83662 6.10381 3.83979 6.11277C4.0649 6.62639 4.38194 7.11014 4.86385 7.68646L4.86702 7.68945C5.74207 8.70473 6.66467 9.49606 7.68239 10.1022C7.81238 10.1799 7.94554 10.2426 8.07236 10.3023C8.18649 10.3561 8.29429 10.4068 8.38623 10.4606C8.39891 10.4666 8.4116 10.4755 8.42428 10.4815C8.53207 10.5322 8.63353 10.5561 8.73815 10.5561C9.0013 10.5561 9.16617 10.4009 9.22006 10.3501L10.3044 9.32883C10.4122 9.22731 10.5834 9.10488 10.7831 9.10488C10.9797 9.10488 11.1414 9.22133 11.2396 9.32286C11.2428 9.32585 11.2428 9.32585 11.246 9.32883L12.9929 10.9742C13.3195 11.2788 13.3195 11.5923 12.9961 11.9089Z" fill="black"/>
<path d="M8.10719 3.36563C8.93785 3.49702 9.69242 3.8673 10.2948 4.43466C10.8972 5.00203 11.2872 5.71273 11.4298 6.49509C11.4647 6.69218 11.6454 6.82954 11.8515 6.82954C11.8769 6.82954 11.8991 6.82655 11.9244 6.82357C12.159 6.78773 12.3144 6.5787 12.2763 6.35773C12.1051 5.41113 11.6296 4.54813 10.9035 3.86431C10.1775 3.18049 9.26124 2.73257 8.2562 2.57132C8.02159 2.53548 7.80283 2.6818 7.76161 2.89979C7.7204 3.11778 7.87258 3.32979 8.10719 3.36563Z" fill="black"/>
<path d="M14.993 6.24119C14.7109 4.68243 13.9309 3.26402 12.7325 2.13526C11.5341 1.0065 10.0281 0.271912 8.37312 0.0061459C8.14168 -0.0326738 7.92292 0.116633 7.8817 0.33462C7.84366 0.555594 7.99901 0.761637 8.23362 0.800457C9.71106 1.03636 11.0585 1.6963 12.1301 2.70262C13.2017 3.71194 13.8992 4.98104 14.1497 6.37258C14.1846 6.56966 14.3653 6.70703 14.5714 6.70703C14.5967 6.70703 14.6189 6.70404 14.6443 6.70105C14.8757 6.66821 15.0343 6.45918 14.993 6.24119Z" fill="black"/>
</svg>
