<svg width="19" height="19" viewBox="0 0 19 19" fill="none" xmlns="http://www.w3.org/2000/svg">
<path d="M1.88849 11.8732C2.44823 12.8427 3.22343 13.6705 4.15416 14.2926C5.08489 14.9147 6.14621 15.3144 7.25608 15.4609C8.36594 15.6073 9.49463 15.4966 10.5549 15.1373C11.6151 14.7779 12.5785 14.1796 13.3706 13.3884C14.1627 12.5973 14.7623 11.6347 15.1229 10.5749C15.4836 9.51508 15.5958 8.38653 15.4507 7.27648C15.3056 6.16643 14.9072 5.10462 14.2862 4.17312C13.6653 3.24162 12.8384 2.46539 11.8696 1.90443" stroke="black" stroke-linecap="round"/>
<path d="M1.23229 5.79512C0.796396 7.24036 0.730095 8.76505 1.04102 10.1938" stroke="black" stroke-linecap="round"/>
<path d="M4.69647 1.77958C3.68056 2.24675 2.83188 3.02324 2.24805 4.01978" stroke="black" stroke-linecap="round"/>
<path d="M10.7051 1.42248C9.35268 0.91919 7.87952 0.824284 6.45508 1.14868" stroke="black" stroke-linecap="round"/>
</svg>
