<svg width="42" height="42" viewBox="0 0 42 42" fill="none" xmlns="http://www.w3.org/2000/svg">
<circle cx="21" cy="21" r="21" fill="#F8CE61"/>
<path d="M25 29V27.3333C25 26.4493 24.6839 25.6014 24.1213 24.9763C23.5587 24.3512 22.7956 24 22 24H16C15.2044 24 14.4413 24.3512 13.8787 24.9763C13.3161 25.6014 13 26.4493 13 27.3333V29" fill="black"/>
<path d="M19 22C20.6569 22 22 20.6569 22 19C22 17.3431 20.6569 16 19 16C17.3431 16 16 17.3431 16 19C16 20.6569 17.3431 22 19 22Z" fill="black"/>
<path d="M24.375 18.5781V17.2656H27.7812V13.8359H29.1172V17.2656H32.5234V18.5781H29.1172V22H27.7812V18.5781H24.375Z" fill="black"/>
</svg>
