<svg width="23" height="20" viewBox="0 0 23 20" fill="none" xmlns="http://www.w3.org/2000/svg">
<path d="M12.4092 1.5L19.4847 8.57558C20.6342 9.67731 21.2989 11.1905 21.3326 12.7824C21.3664 14.3742 20.7664 15.9142 19.6646 17.0637C18.5629 18.2131 17.0497 18.8778 15.4578 18.9116C13.866 18.9453 12.326 18.3453 11.1765 17.2436L2.42687 8.85708C1.65924 8.12261 1.21482 7.1133 1.19138 6.05116C1.16793 4.98903 1.56737 3.96108 2.30183 3.19345C3.0363 2.42583 4.04561 1.98141 5.10775 1.95796C6.16989 1.93452 7.19783 2.33396 7.96546 3.06842L16.7155 11.4749C17.0987 11.8422 17.3203 12.3466 17.3315 12.8772C17.3428 13.4078 17.1428 13.9211 16.7755 14.3043C16.4083 14.6874 15.9039 14.909 15.3732 14.9202C14.8426 14.9315 14.3293 14.7315 13.9461 14.3642L5.28815 6.05582" stroke="black" stroke-width="1.5" stroke-linecap="round" stroke-linejoin="round"/>
</svg>
