<svg width="42" height="42" viewBox="0 0 42 42" fill="none" xmlns="http://www.w3.org/2000/svg">
<circle cx="21" cy="21" r="21" fill="#F8CE61"/>
<path d="M24 19.0001L28.553 16.7241C28.7054 16.648 28.8748 16.612 29.045 16.6197C29.2152 16.6273 29.3806 16.6784 29.5256 16.7679C29.6706 16.8575 29.7902 16.9826 29.8733 17.1314C29.9563 17.2802 29.9999 17.4477 30 17.6181V24.3821C29.9999 24.5525 29.9563 24.7201 29.8733 24.8688C29.7902 25.0176 29.6706 25.1428 29.5256 25.2323C29.3806 25.3219 29.2152 25.3729 29.045 25.3806C28.8748 25.3882 28.7054 25.3523 28.553 25.2761L24 23.0001V19.0001Z" fill="black"/>
<path d="M22 15H14C12.8954 15 12 15.8954 12 17V25C12 26.1046 12.8954 27 14 27H22C23.1046 27 24 26.1046 24 25V17C24 15.8954 23.1046 15 22 15Z" fill="black"/>
</svg>
